<svg width="8200" height="2000" viewBox="0 0 8200 2000" fill="none" xmlns="http://www.w3.org/2000/svg">
<rect x="5868.31" y="290.342" width="427.427" height="1285.8" fill="url(#paint0_linear_569_2801)"/>
<path d="M8159.88 1105.36C8159.88 1153.72 8156.82 1204.09 8150.7 1256.48H6966.11C6974.27 1361.26 7007.94 1441.86 7067.12 1498.28C7128.34 1552.68 7202.82 1579.88 7290.57 1579.88C7421.17 1579.88 7511.98 1525.48 7562.99 1416.67H8120.09C8091.52 1527.49 8039.48 1627.23 7963.98 1715.89C7890.52 1804.55 7797.67 1874.07 7685.43 1924.44C7573.2 1974.81 7447.7 2000 7308.94 2000C7141.6 2000 6992.64 1964.74 6862.04 1894.22C6731.44 1823.69 6629.4 1722.94 6555.94 1591.97C6482.48 1461 6445.75 1307.86 6445.75 1132.56C6445.75 957.259 6481.46 804.123 6552.88 673.15C6626.34 542.178 6728.38 441.43 6858.98 370.906C6989.58 300.383 7139.56 265.121 7308.94 265.121C7474.23 265.121 7621.15 299.375 7749.71 367.884C7878.27 436.393 7978.26 534.118 8049.69 661.061C8123.15 788.003 8159.88 936.102 8159.88 1105.36ZM7624.21 969.349C7624.21 880.691 7593.6 810.167 7532.38 757.778C7471.17 705.39 7394.64 679.195 7302.81 679.195C7215.07 679.195 7140.58 704.382 7079.36 754.756C7020.19 805.13 6983.45 876.661 6969.17 969.349H7624.21Z" fill="#161A5B"/>
<path d="M6295.74 704.819L4903.38 1990.92H4599.82V1675.47L5660.21 720.061H4607.75V290.342H6295.74V704.819Z" fill="#161A5B"/>
<path d="M6295.74 1990.92H5868.31V1562.32H6295.74V1990.92Z" fill="#161A5B"/>
<path d="M3326.13 271.725C3445.83 271.725 3550.31 295.811 3639.57 343.984C3730.87 392.158 3812.61 476.383 3849.55 598.64V295.812H4369.94V1988.86H3849.55V1692.53C3812.61 1801.79 3727.83 1879.52 3636.53 1927.69C3547.27 1975.86 3442.78 1999.95 3323.08 1999.95C3185.13 1999.95 3059.34 1964.82 2945.73 1894.57C2832.12 1822.31 2741.84 1720.95 2674.89 1590.48C2609.96 1458 2577.5 1305.45 2577.5 1132.83C2577.5 960.205 2609.96 808.659 2674.89 678.189C2741.84 547.72 2832.12 447.358 2945.73 377.104C3059.34 306.851 3186.14 271.725 3326.13 271.725ZM1920.12 1990.92H1409.97V290.341H1920.12V1990.92ZM3478.29 720.341C3374.82 720.341 3286.57 757.475 3213.53 831.742C3142.52 904.003 3107.02 1004.36 3107.02 1132.83C3107.02 1261.29 3142.52 1363.66 3213.53 1439.93C3286.57 1514.2 3374.82 1551.33 3478.29 1551.33C3581.75 1551.33 3668.99 1514.2 3740 1439.93C3813.04 1365.67 3849.55 1264.3 3849.55 1135.84C3849.55 1007.38 3813.04 906.01 3740 831.742C3668.99 757.475 3581.75 720.341 3478.29 720.341ZM2427.32 297.426C2442.17 297.426 2456.89 298.191 2471.42 299.462V838.857H1934.12C1934.12 567.024 2153.56 297.44 2427.32 297.426Z" fill="#161A5B"/>
<path d="M715.467 290.342H1086.21V718.943H715.467V1549.23C715.467 1560.03 724.203 1568.79 734.98 1568.79H1157.76V1986.96H734.98C465.565 1986.96 247.161 1767.95 247.161 1497.8V718.943H0V290.342H247.161V4.23828H715.467V290.342Z" fill="#161A5B"/>
<defs>
<linearGradient id="paint0_linear_569_2801" x1="6103.9" y1="1999.74" x2="5925.54" y2="1095.39" gradientUnits="userSpaceOnUse">
<stop stop-color="#161A5B"/>
<stop offset="1" stop-color="#E3E5FF" stop-opacity="0.4"/>
</linearGradient>
</defs>
</svg>
