<svg width="8300" height="2000" viewBox="0 0 8300 2000" fill="none" xmlns="http://www.w3.org/2000/svg">
<rect x="5901.85" y="290.342" width="429.869" height="1285.8" fill="url(#paint0_linear_569_2800)"/>
<path d="M8206.51 1105.36C8206.51 1153.72 8203.43 1204.09 8197.27 1256.48H7005.92C7014.12 1361.26 7047.99 1441.85 7107.5 1498.27C7169.07 1552.68 7243.98 1579.88 7332.23 1579.88C7463.58 1579.88 7554.9 1525.48 7606.21 1416.67H8166.49C8137.75 1527.49 8085.42 1627.23 8009.49 1715.89C7935.6 1804.55 7842.23 1874.06 7729.35 1924.44C7616.47 1974.81 7490.26 2000 7350.7 2000C7182.41 2000 7032.6 1964.74 6901.25 1894.21C6769.9 1823.69 6667.29 1722.94 6593.4 1591.97C6519.52 1461 6482.58 1307.86 6482.58 1132.56C6482.58 957.258 6518.5 804.122 6590.33 673.149C6664.21 542.177 6766.82 441.43 6898.17 370.906C7029.52 300.383 7180.36 265.121 7350.7 265.121C7516.94 265.121 7664.7 299.375 7794 367.884C7923.29 436.392 8023.85 534.118 8095.68 661.06C8169.57 788.002 8206.51 936.101 8206.51 1105.36ZM7667.78 969.348C7667.78 880.69 7637 810.166 7575.43 757.777C7513.86 705.389 7436.9 679.194 7344.54 679.194C7256.3 679.194 7181.39 704.381 7119.82 754.755C7060.3 805.129 7023.36 876.66 7008.99 969.348H7667.78Z" fill="white"/>
<path d="M6331.72 704.818L4931.4 1990.91H4626.11V1675.47L5692.55 720.06H4634.08V290.342H6331.72V704.818Z" fill="white"/>
<path d="M6331.72 1990.91H5901.85V1562.31H6331.72V1990.91Z" fill="white"/>
<path d="M3345.13 271.725C3465.52 271.725 3570.6 295.811 3660.37 343.984C3752.19 392.158 3834.39 476.383 3871.55 598.639V295.812H4394.91V1988.86H3871.55V1692.53C3834.39 1801.79 3749.13 1879.51 3657.31 1927.69C3567.53 1975.86 3462.46 1999.95 3342.07 1999.95C3203.33 1999.95 3076.82 1964.82 2962.56 1894.57C2848.3 1822.31 2757.5 1720.94 2690.17 1590.47C2624.88 1458 2592.23 1305.45 2592.23 1132.83C2592.23 960.204 2624.88 808.658 2690.17 678.188C2757.5 547.719 2848.3 447.356 2962.56 377.104C3076.82 306.851 3204.35 271.725 3345.13 271.725ZM1931.09 1990.91H1418.02V290.341H1931.09V1990.91ZM3498.16 720.34C3394.1 720.34 3305.35 757.474 3231.89 831.741C3160.48 904.001 3124.77 1004.36 3124.77 1132.83C3124.77 1261.29 3160.48 1363.66 3231.89 1439.93C3305.35 1514.2 3394.1 1551.33 3498.16 1551.33C3602.22 1551.33 3689.96 1514.2 3761.37 1439.93C3834.83 1365.66 3871.55 1264.3 3871.55 1135.84C3871.55 1007.37 3834.83 906.009 3761.37 831.741C3689.96 757.474 3602.22 720.34 3498.16 720.34ZM2441.19 297.426C2456.13 297.426 2470.93 298.19 2485.54 299.461V838.856H1945.17C1945.17 567.024 2165.87 297.44 2441.19 297.426Z" fill="white"/>
<path d="M719.556 290.342H1092.42V718.941H719.556V1549.22C719.556 1560.03 728.342 1568.79 739.18 1568.79H1164.37V1986.95H739.18C468.225 1986.95 248.574 1767.95 248.574 1497.8V718.941H0V290.342H248.574V4.23828H719.556V290.342Z" fill="white"/>
<defs>
<linearGradient id="paint0_linear_569_2800" x1="6138.78" y1="1999.74" x2="5961.36" y2="1095" gradientUnits="userSpaceOnUse">
<stop stop-color="#161A5B"/>
<stop offset="1" stop-color="#E3E5FF" stop-opacity="0.4"/>
</linearGradient>
</defs>
</svg>
