<svg width="8774" height="2000" viewBox="0 0 8774 2000" fill="none" xmlns="http://www.w3.org/2000/svg">
<rect x="5884.41" y="290.342" width="428.599" height="1285.8" fill="url(#paint0_linear_569_2799)"/>
<path d="M8421.84 49.8512H8325.35V304.168H8262.13V49.8512H8165.66V0H8421.84V49.8512Z" fill="white"/>
<path d="M8610.82 229.398L8675.07 0H8774V304.168H8711.61V56.3009L8642.22 304.168H8576.96L8507.99 57.4148V304.168H8448.06V0H8546.58L8610.82 229.398Z" fill="white"/>
<path d="M8182.26 1105.36C8182.26 1153.72 8179.19 1204.09 8173.05 1256.48H6985.22C6993.4 1361.26 7027.16 1441.86 7086.5 1498.28C7147.89 1552.68 7222.58 1579.88 7310.57 1579.88C7441.53 1579.88 7532.58 1525.48 7583.74 1416.67H8142.36C8113.71 1527.49 8061.53 1627.23 7985.82 1715.89C7912.16 1804.55 7819.06 1874.07 7706.51 1924.44C7593.97 1974.81 7468.13 2000 7328.98 2000C7161.19 2000 7011.82 1964.74 6880.86 1894.22C6749.9 1823.69 6647.59 1722.94 6573.92 1591.97C6500.26 1461 6463.43 1307.86 6463.43 1132.56C6463.43 957.259 6499.24 804.123 6570.86 673.15C6644.52 542.178 6746.83 441.43 6877.79 370.906C7008.75 300.383 7159.15 265.121 7328.98 265.121C7494.73 265.121 7642.06 299.375 7770.97 367.884C7899.88 436.393 8000.15 534.118 8071.76 661.061C8145.43 788.003 8182.26 936.102 8182.26 1105.36ZM7645.13 969.349C7645.13 880.691 7614.43 810.167 7553.05 757.778C7491.66 705.39 7414.92 679.195 7322.84 679.195C7234.86 679.195 7160.17 704.382 7098.78 754.756C7039.44 805.13 7002.61 876.661 6988.29 969.349H7645.13Z" fill="white"/>
<path d="M6313.01 704.819L4916.83 1990.92H4612.44V1675.47L5675.73 720.061H4620.39V290.342H6313.01V704.819Z" fill="white"/>
<path d="M6313.01 1990.92H5884.41V1562.32H6313.01V1990.92Z" fill="white"/>
<path d="M3335.25 271.725C3455.28 271.725 3560.05 295.811 3649.56 343.984C3741.1 392.158 3823.06 476.383 3860.11 598.64V295.812H4381.93V1988.86H3860.11V1692.53C3823.06 1801.79 3738.05 1879.52 3646.51 1927.69C3557 1975.86 3452.23 1999.95 3332.2 1999.95C3193.86 1999.95 3067.73 1964.82 2953.81 1894.57C2839.88 1822.31 2749.36 1720.95 2682.22 1590.48C2617.12 1458 2584.57 1305.45 2584.57 1132.83C2584.57 960.205 2617.12 808.659 2682.22 678.189C2749.36 547.719 2839.88 447.358 2953.81 377.104C3067.73 306.851 3194.88 271.725 3335.25 271.725ZM1925.39 1990.92H1413.83V290.341H1925.39V1990.92ZM3487.83 720.341C3384.08 720.341 3295.58 757.475 3222.34 831.742C3151.14 904.003 3115.54 1004.36 3115.54 1132.83C3115.54 1261.29 3151.14 1363.66 3222.34 1439.93C3295.58 1514.2 3384.08 1551.33 3487.83 1551.33C3591.58 1551.33 3679.06 1514.2 3750.26 1439.93C3823.5 1365.67 3860.11 1264.3 3860.11 1135.84C3860.11 1007.38 3823.5 906.01 3750.26 831.742C3679.06 757.475 3591.58 720.341 3487.83 720.341ZM2433.97 297.426C2448.87 297.426 2463.63 298.19 2478.2 299.461V838.857H1939.43C1939.43 567.024 2159.47 297.44 2433.97 297.426Z" fill="white"/>
<path d="M717.43 290.342H1089.19V718.943H717.43V1549.23C717.43 1560.03 726.19 1568.79 736.996 1568.79H1160.93V1986.96H736.996C466.842 1986.96 247.839 1767.95 247.839 1497.8V718.943H0V290.342H247.839V4.23828H717.43V290.342Z" fill="white"/>
<defs>
<linearGradient id="paint0_linear_569_2799" x1="6120.64" y1="1999.74" x2="5942.73" y2="1095.2" gradientUnits="userSpaceOnUse">
<stop stop-color="#161A5B"/>
<stop offset="1" stop-color="#E3E5FF" stop-opacity="0.4"/>
</linearGradient>
</defs>
</svg>
