<?xml version="1.0" encoding="UTF-8"?> <svg xmlns="http://www.w3.org/2000/svg" width="161" height="50" viewBox="0 0 161 50" fill="none"><path d="M159.927 44.2337C159.927 46.8982 157.879 49.0566 155.347 49.0566H5.47909C2.94803 49.0566 0.893555 46.8982 0.893555 44.2337V5.77256C0.893555 3.10926 2.94803 0.943359 5.47909 0.943359H155.346C157.879 0.943359 159.925 3.10926 159.925 5.77256L159.927 44.2337Z" fill="black"></path><path d="M154.864 1.00156C157.621 1.00156 159.865 3.35625 159.865 6.25V43.75C159.865 46.6438 157.621 48.9984 154.864 48.9984H5.95629C3.19853 48.9984 0.954495 46.6438 0.954495 43.75V6.25C0.954495 3.35625 3.19853 1.00156 5.95629 1.00156H154.864ZM154.864 2.64247e-06H5.95629C2.68182 2.64247e-06 0 2.81407 0 6.25V43.75C0 47.1859 2.68182 50 5.95629 50H154.864C158.138 50 160.82 47.1859 160.82 43.75V6.25C160.82 2.81407 158.138 2.64247e-06 154.864 2.64247e-06Z" fill="#A6A6A6"></path><path d="M35.893 24.73C35.8584 20.7012 39.0367 18.7412 39.182 18.65C37.3821 15.8962 34.5921 15.52 33.6117 15.49C31.2685 15.2312 28.9956 16.9612 27.802 16.9612C26.5845 16.9612 24.7464 15.515 22.7653 15.5575C20.216 15.5987 17.8311 17.1475 16.5231 19.5525C13.8237 24.4562 15.837 31.6625 18.4232 35.6262C19.7169 37.5675 21.2286 39.735 23.2073 39.6587C25.1431 39.575 25.8662 38.3637 28.2022 38.3637C30.5168 38.3637 31.1958 39.6587 33.2138 39.61C35.2914 39.575 36.5994 37.66 37.8478 35.7012C39.3429 33.4762 39.9433 31.285 39.9671 31.1725C39.9182 31.155 35.9323 29.5587 35.893 24.73Z" fill="white"></path><path d="M32.081 12.8825C33.1221 11.5162 33.8345 9.65749 33.6367 7.77124C32.1298 7.84124 30.2452 8.86499 29.16 10.2012C28.1998 11.3787 27.3421 13.3087 27.5637 15.1237C29.2565 15.2562 30.9945 14.2275 32.081 12.8825Z" fill="white"></path><path d="M63.9062 39.3799H61.2009L59.719 34.4937H54.568L53.1563 39.3799H50.5225L55.6258 22.7449H58.7779L63.9062 39.3799ZM59.2723 32.4437L57.9321 28.0999C57.7903 27.6562 57.5247 26.6112 57.1328 24.9662H57.0851C56.929 25.6737 56.6777 26.7187 56.3322 28.0999L55.0159 32.4437H59.2723Z" fill="white"></path><path d="M77.0299 33.2349C77.0299 35.2749 76.5046 36.8874 75.4539 38.0712C74.5128 39.1249 73.3441 39.6512 71.9492 39.6512C70.4434 39.6512 69.3618 39.0837 68.703 37.9487H68.6554V44.2674H66.1156V31.3337C66.1156 30.0512 66.0834 28.7349 66.0215 27.3849H68.2551L68.3969 29.2862H68.4445C69.2915 27.8537 70.5769 27.1387 72.3018 27.1387C73.6503 27.1387 74.776 27.6974 75.6766 28.8162C76.5796 29.9362 77.0299 31.4087 77.0299 33.2349ZM74.4425 33.3324C74.4425 32.1649 74.1923 31.2024 73.6896 30.4449C73.1404 29.6549 72.4031 29.2599 71.4786 29.2599C70.852 29.2599 70.2826 29.4799 69.7739 29.9137C69.2641 30.3512 68.9305 30.9224 68.7745 31.6299C68.6959 31.9599 68.6565 32.2299 68.6565 32.4424V34.4424C68.6565 35.3149 68.9115 36.0512 69.4213 36.6524C69.9312 37.2537 70.5935 37.5537 71.4084 37.5537C72.3649 37.5537 73.1095 37.1662 73.642 36.3937C74.1756 35.6199 74.4425 34.5999 74.4425 33.3324Z" fill="white"></path><path d="M90.1771 33.2349C90.1771 35.2749 89.6518 36.8874 88.5999 38.0712C87.66 39.1249 86.4914 39.6512 85.0964 39.6512C83.5907 39.6512 82.509 39.0837 81.8514 37.9487H81.8038V44.2674H79.264V31.3337C79.264 30.0512 79.2319 28.7349 79.1699 27.3849H81.4035L81.5453 29.2862H81.5929C82.4387 27.8537 83.7241 27.1387 85.4502 27.1387C86.7976 27.1387 87.9233 27.6974 88.8263 28.8162C89.7257 29.9362 90.1771 31.4087 90.1771 33.2349ZM87.5897 33.3324C87.5897 32.1649 87.3384 31.2024 86.8357 30.4449C86.2865 29.6549 85.5515 29.2599 84.6259 29.2599C83.9981 29.2599 83.4299 29.4799 82.92 29.9137C82.4101 30.3512 82.0778 30.9224 81.9217 31.6299C81.8443 31.9599 81.8038 32.2299 81.8038 32.4424V34.4424C81.8038 35.3149 82.0587 36.0512 82.5662 36.6524C83.0761 37.2524 83.7384 37.5537 84.5556 37.5537C85.5122 37.5537 86.2567 37.1662 86.7892 36.3937C87.3229 35.6199 87.5897 34.5999 87.5897 33.3324Z" fill="white"></path><path d="M104.878 34.715C104.878 36.13 104.41 37.2812 103.47 38.17C102.437 39.1412 100.999 39.6262 99.1516 39.6262C97.4457 39.6262 96.0782 39.2812 95.043 38.59L95.6315 36.3687C96.7465 37.0762 97.9699 37.4312 99.3029 37.4312C100.259 37.4312 101.004 37.2037 101.539 36.7512C102.071 36.2987 102.337 35.6912 102.337 34.9337C102.337 34.2587 102.118 33.69 101.678 33.2287C101.241 32.7675 100.511 32.3387 99.4911 31.9425C96.7155 30.8562 95.3289 29.265 95.3289 27.1725C95.3289 25.805 95.8149 24.6837 96.7882 23.8112C97.7579 22.9375 99.0516 22.5012 100.669 22.5012C102.112 22.5012 103.31 22.765 104.267 23.2912L103.632 25.4637C102.738 24.9537 101.728 24.6987 100.598 24.6987C99.7044 24.6987 99.0063 24.93 98.506 25.39C98.0831 25.8012 97.871 26.3025 97.871 26.8962C97.871 27.5537 98.1128 28.0975 98.5989 28.525C99.0218 28.92 99.7901 29.3475 100.905 29.8087C102.269 30.385 103.271 31.0587 103.915 31.8312C104.558 32.6012 104.878 33.565 104.878 34.715Z" fill="white"></path><path d="M113.275 29.3849H110.476V35.2086C110.476 36.6899 110.969 37.4299 111.958 37.4299C112.412 37.4299 112.788 37.3886 113.086 37.3061L113.156 39.3299C112.656 39.5261 111.997 39.6249 111.181 39.6249C110.178 39.6249 109.394 39.3036 108.828 38.6624C108.265 38.0199 107.981 36.9424 107.981 35.4286V29.3824H106.313V27.3824H107.981V25.1861L110.476 24.3961V27.3824H113.275V29.3849Z" fill="white"></path><path d="M125.906 33.2837C125.906 35.1275 125.403 36.6412 124.4 37.825C123.348 39.0437 121.952 39.6512 120.211 39.6512C118.534 39.6512 117.199 39.0675 116.203 37.9C115.207 36.7325 114.709 35.2587 114.709 33.4825C114.709 31.6237 115.221 30.1012 116.249 28.9175C117.275 27.7325 118.659 27.14 120.4 27.14C122.077 27.14 123.427 27.7237 124.445 28.8925C125.42 30.0262 125.906 31.49 125.906 33.2837ZM123.271 33.37C123.271 32.2637 123.045 31.315 122.589 30.5237C122.057 29.5662 121.295 29.0887 120.309 29.0887C119.288 29.0887 118.513 29.5675 117.98 30.5237C117.524 31.3162 117.299 32.28 117.299 33.42C117.299 34.5262 117.524 35.475 117.98 36.265C118.529 37.2225 119.297 37.7 120.286 37.7C121.256 37.7 122.017 37.2125 122.567 36.24C123.035 35.4337 123.271 34.475 123.271 33.37Z" fill="white"></path><path d="M134.162 29.7287C133.91 29.6799 133.642 29.6549 133.361 29.6549C132.468 29.6549 131.777 30.0087 131.291 30.7174C130.868 31.3424 130.656 32.1324 130.656 33.0862V39.3799H128.117L128.141 31.1624C128.141 29.7799 128.109 28.5212 128.046 27.3862H130.258L130.351 29.6812H130.421C130.689 28.8924 131.112 28.2574 131.691 27.7812C132.257 27.3524 132.868 27.1387 133.527 27.1387C133.762 27.1387 133.974 27.1562 134.162 27.1874V29.7287Z" fill="white"></path><path d="M145.52 32.8149C145.52 33.2924 145.491 33.6949 145.427 34.0236H137.808C137.838 35.2086 138.206 36.1149 138.914 36.7399C139.556 37.2986 140.386 37.5786 141.406 37.5786C142.534 37.5786 143.563 37.3899 144.489 37.0111L144.887 38.8611C143.805 39.3561 142.528 39.6024 141.054 39.6024C139.282 39.6024 137.89 39.0549 136.878 37.9611C135.868 36.8674 135.361 35.3986 135.361 33.5561C135.361 31.7474 135.832 30.2411 136.774 29.0399C137.761 27.7574 139.094 27.1161 140.771 27.1161C142.418 27.1161 143.666 27.7574 144.513 29.0399C145.183 30.0586 145.52 31.3186 145.52 32.8149ZM143.099 32.1236C143.115 31.3336 142.95 30.6511 142.605 30.0749C142.166 29.3336 141.49 28.9636 140.581 28.9636C139.751 28.9636 139.076 29.3249 138.56 30.0499C138.137 30.6261 137.886 31.3174 137.808 32.1224H143.099V32.1236Z" fill="white"></path><path d="M58.4321 12.5112C58.4321 13.9825 58.0116 15.09 57.1718 15.8337C56.3939 16.52 55.2884 16.8637 53.8565 16.8637C53.1465 16.8637 52.5389 16.8312 52.0303 16.7662V8.72749C52.6938 8.61499 53.4086 8.5575 54.1805 8.5575C55.5445 8.5575 56.5725 8.86874 57.2659 9.49124C58.0426 10.195 58.4321 11.2012 58.4321 12.5112ZM57.1158 12.5475C57.1158 11.5937 56.8751 10.8625 56.3939 10.3525C55.9126 9.84374 55.2097 9.58875 54.2841 9.58875C53.891 9.58875 53.5563 9.61624 53.2787 9.67374V15.785C53.4324 15.81 53.7135 15.8212 54.1221 15.8212C55.0775 15.8212 55.8149 15.5425 56.3343 14.985C56.8537 14.4275 57.1158 13.615 57.1158 12.5475Z" fill="white"></path><path d="M65.4131 13.7962C65.4131 14.7025 65.1665 15.445 64.6734 16.0275C64.1563 16.6262 63.4714 16.925 62.6161 16.925C61.7917 16.925 61.1353 16.6387 60.6457 16.0637C60.1573 15.49 59.9131 14.7662 59.9131 13.8937C59.9131 12.9812 60.1644 12.2325 60.6695 11.6512C61.1746 11.07 61.8536 10.7787 62.709 10.7787C63.5333 10.7787 64.1957 11.065 64.6972 11.6387C65.1737 12.1962 65.4131 12.9162 65.4131 13.7962ZM64.1182 13.8387C64.1182 13.295 64.0063 12.8287 63.7835 12.44C63.5214 11.97 63.1485 11.735 62.6637 11.735C62.1622 11.735 61.781 11.97 61.5189 12.44C61.2949 12.8287 61.1842 13.3025 61.1842 13.8625C61.1842 14.4062 61.2961 14.8725 61.5189 15.2612C61.7893 15.7312 62.1658 15.9662 62.6518 15.9662C63.1283 15.9662 63.5023 15.7275 63.7716 15.2487C64.0027 14.8525 64.1182 14.3825 64.1182 13.8387Z" fill="white"></path><path d="M74.7701 10.8988L73.013 16.7913H71.8694L71.1415 14.2326C70.9569 13.5938 70.8068 12.9588 70.69 12.3288H70.6674C70.559 12.9763 70.4089 13.6101 70.2159 14.2326L69.4428 16.7913H68.2861L66.6338 10.8988H67.9168L68.5517 13.7001C68.7054 14.3626 68.8317 14.9938 68.9329 15.5913H68.9555C69.0485 15.0988 69.2021 14.4713 69.4189 13.7126L70.2159 10.9001H71.2332L71.9968 13.6526C72.1815 14.3238 72.3316 14.9701 72.4471 15.5926H72.4817C72.5663 14.9863 72.6937 14.3401 72.8629 13.6526L73.5443 10.9001H74.7701V10.8988Z" fill="white"></path><path d="M81.2436 16.7913H79.9951V13.4163C79.9951 12.3763 79.6187 11.8563 78.8634 11.8563C78.4929 11.8563 78.1939 11.9988 77.9616 12.285C77.7317 12.5713 77.615 12.9088 77.615 13.295V16.79H76.3666V12.5825C76.3666 12.065 76.3511 11.5038 76.3213 10.8963H77.4184L77.4768 11.8175H77.5114C77.6567 11.5313 77.8735 11.295 78.1582 11.1063C78.4965 10.8863 78.8753 10.775 79.2899 10.775C79.814 10.775 80.25 10.9525 80.5967 11.3088C81.0279 11.745 81.2436 12.3963 81.2436 13.2613V16.7913Z" fill="white"></path><path d="M84.6867 16.7913H83.4395V8.19501H84.6867V16.7913Z" fill="white"></path><path d="M92.0342 13.7962C92.0342 14.7025 91.7876 15.445 91.2945 16.0275C90.7774 16.6262 90.0913 16.925 89.2372 16.925C88.4116 16.925 87.7552 16.6387 87.2668 16.0637C86.7784 15.49 86.5342 14.7662 86.5342 13.8937C86.5342 12.9812 86.7855 12.2325 87.2906 11.6512C87.7957 11.07 88.4747 10.7787 89.3289 10.7787C90.1544 10.7787 90.8156 11.065 91.3183 11.6387C91.7948 12.1962 92.0342 12.9162 92.0342 13.7962ZM90.7381 13.8387C90.7381 13.295 90.6262 12.8287 90.4034 12.44C90.1425 11.97 89.7684 11.735 89.2848 11.735C88.7821 11.735 88.4009 11.97 88.14 12.44C87.916 12.8287 87.8053 13.3025 87.8053 13.8625C87.8053 14.4062 87.9172 14.8725 88.14 15.2612C88.4104 15.7312 88.7869 15.9662 89.2729 15.9662C89.7494 15.9662 90.1222 15.7275 90.3915 15.2487C90.6238 14.8525 90.7381 14.3825 90.7381 13.8387Z" fill="white"></path><path d="M98.077 16.7912H96.956L96.8631 16.1125H96.8285C96.4449 16.6537 95.8982 16.925 95.1882 16.925C94.6581 16.925 94.2292 16.7462 93.9064 16.3912C93.6133 16.0687 93.4668 15.6675 93.4668 15.1912C93.4668 14.4712 93.7527 13.9225 94.3281 13.5425C94.9023 13.1625 95.7099 12.9762 96.7499 12.985V12.875C96.7499 12.0987 96.3616 11.7112 95.5837 11.7112C95.0297 11.7112 94.5413 11.8575 94.1196 12.1475L93.8659 11.2875C94.3876 10.9487 95.0321 10.7787 95.7921 10.7787C97.2598 10.7787 97.996 11.5912 97.996 13.2162V15.3862C97.996 15.975 98.0234 16.4437 98.077 16.7912ZM96.7809 14.7662V13.8575C95.4038 13.8325 94.7152 14.2287 94.7152 15.045C94.7152 15.3525 94.7939 15.5825 94.9547 15.7362C95.1155 15.89 95.3204 15.9662 95.5646 15.9662C95.8386 15.9662 96.0947 15.875 96.3282 15.6937C96.5629 15.5112 96.707 15.28 96.7606 14.9962C96.7737 14.9325 96.7809 14.855 96.7809 14.7662Z" fill="white"></path><path d="M105.171 16.7913H104.063L104.005 15.845H103.97C103.617 16.565 103.014 16.925 102.167 16.925C101.49 16.925 100.927 16.6463 100.48 16.0888C100.033 15.5313 99.8105 14.8075 99.8105 13.9188C99.8105 12.965 100.052 12.1925 100.538 11.6025C101.009 11.0525 101.586 10.7775 102.272 10.7775C103.026 10.7775 103.553 11.0438 103.854 11.5775H103.877V8.19501H105.127V15.2038C105.127 15.7775 105.141 16.3063 105.171 16.7913ZM103.877 14.3063V13.3238C103.877 13.1538 103.866 13.0163 103.843 12.9113C103.773 12.5963 103.621 12.3313 103.391 12.1175C103.159 11.9038 102.879 11.7963 102.556 11.7963C102.091 11.7963 101.726 11.99 101.458 12.3788C101.192 12.7675 101.058 13.2638 101.058 13.87C101.058 14.4525 101.185 14.925 101.441 15.2888C101.712 15.6763 102.076 15.87 102.533 15.87C102.942 15.87 103.27 15.7088 103.519 15.385C103.76 15.0863 103.877 14.7263 103.877 14.3063Z" fill="white"></path><path d="M115.849 13.7962C115.849 14.7025 115.602 15.445 115.109 16.0275C114.592 16.6262 113.908 16.925 113.052 16.925C112.228 16.925 111.572 16.6387 111.081 16.0637C110.593 15.49 110.349 14.7662 110.349 13.8937C110.349 12.9812 110.6 12.2325 111.105 11.6512C111.61 11.07 112.289 10.7787 113.146 10.7787C113.969 10.7787 114.632 11.065 115.133 11.6387C115.609 12.1962 115.849 12.9162 115.849 13.7962ZM114.555 13.8387C114.555 13.295 114.443 12.8287 114.22 12.44C113.957 11.97 113.585 11.735 113.099 11.735C112.599 11.735 112.218 11.97 111.954 12.44C111.73 12.8287 111.62 13.3025 111.62 13.8625C111.62 14.4062 111.732 14.8725 111.954 15.2612C112.225 15.7312 112.601 15.9662 113.087 15.9662C113.564 15.9662 113.939 15.7275 114.208 15.2487C114.438 14.8525 114.555 14.3825 114.555 13.8387Z" fill="white"></path><path d="M122.563 16.7913H121.315V13.4163C121.315 12.3763 120.939 11.8563 120.183 11.8563C119.812 11.8563 119.513 11.9988 119.282 12.285C119.051 12.5713 118.935 12.9088 118.935 13.295V16.79H117.686V12.5825C117.686 12.065 117.671 11.5038 117.642 10.8963H118.738L118.796 11.8175H118.83C118.977 11.5313 119.194 11.295 119.477 11.1063C119.817 10.8863 120.194 10.775 120.61 10.775C121.133 10.775 121.569 10.9525 121.916 11.3088C122.348 11.745 122.563 12.3963 122.563 13.2613V16.7913Z" fill="white"></path><path d="M130.964 11.88H129.589V14.7425C129.589 15.47 129.834 15.8338 130.317 15.8338C130.541 15.8338 130.727 15.8138 130.874 15.7725L130.906 16.7663C130.659 16.8638 130.335 16.9125 129.936 16.9125C129.443 16.9125 129.059 16.755 128.782 16.44C128.503 16.125 128.365 15.595 128.365 14.8513V11.88H127.544V10.8988H128.365V9.81877L129.588 9.43127V10.8975H130.963V11.88H130.964Z" fill="white"></path><path d="M137.572 16.7913H136.323V13.4413C136.323 12.385 135.946 11.8563 135.192 11.8563C134.613 11.8563 134.218 12.1625 134.001 12.775C133.964 12.9038 133.943 13.0613 133.943 13.2463V16.79H132.695V8.19501H133.943V11.7463H133.966C134.36 11.1 134.923 10.7775 135.653 10.7775C136.17 10.7775 136.598 10.955 136.937 11.3113C137.36 11.755 137.572 12.415 137.572 13.2875V16.7913Z" fill="white"></path><path d="M144.391 13.5663C144.391 13.8013 144.374 13.9988 144.345 14.16H140.6C140.617 14.7425 140.796 15.1863 141.142 15.4938C141.459 15.7688 141.868 15.9063 142.368 15.9063C142.922 15.9063 143.427 15.8138 143.882 15.6275L144.078 16.5375C143.545 16.78 142.919 16.9013 142.193 16.9013C141.324 16.9013 140.639 16.6325 140.143 16.095C139.645 15.5575 139.398 14.8363 139.398 13.9313C139.398 13.0425 139.628 12.3025 140.092 11.7125C140.575 11.0825 141.229 10.7675 142.055 10.7675C142.863 10.7675 143.476 11.0825 143.891 11.7125C144.225 12.2125 144.391 12.8313 144.391 13.5663ZM143.2 13.2275C143.209 12.8388 143.127 12.5038 142.958 12.2213C142.741 11.8575 142.411 11.675 141.964 11.675C141.557 11.675 141.225 11.8525 140.971 12.2088C140.764 12.4925 140.641 12.8313 140.6 13.2275H143.2Z" fill="white"></path></svg> 