<svg width="44" height="44" viewBox="0 0 44 44" fill="none" xmlns="http://www.w3.org/2000/svg">
<rect width="44" height="44" rx="22" fill="#D4DAE2"/>
<path d="M22.8726 8.55266C24.899 6.01238 27.7162 6 27.7162 6C27.7162 6 28.1353 8.38829 26.1222 10.689C23.9726 13.1456 21.5294 12.7436 21.5294 12.7436C21.5294 12.7436 21.0706 10.8116 22.8726 8.55266ZM21.7871 14.4166C22.8296 14.4166 24.7644 13.0537 27.2828 13.0537C31.6179 13.0537 33.3232 15.9875 33.3232 15.9875C33.3232 15.9875 29.9878 17.6094 29.9878 21.545C29.9878 25.9847 34.1429 27.5148 34.1429 27.5148C34.1429 27.5148 31.2383 35.2903 27.3151 35.2903C25.5132 35.2903 24.1123 34.1353 22.2137 34.1353C20.2789 34.1353 18.3589 35.3333 17.1084 35.3333C13.5259 35.3334 9 27.9576 9 22.0286C9 16.1954 12.8309 13.1354 16.4241 13.1354C18.76 13.1354 20.5727 14.4166 21.7871 14.4166Z" fill="#274870"/>
</svg>
