<svg width="44" height="44" viewBox="0 0 44 44" fill="none" xmlns="http://www.w3.org/2000/svg">
<rect width="44" height="44" rx="22" fill="#D4DAE2"/>
<path d="M32.2992 31.4819C20.192 37.2439 12.6782 32.423 7.8684 29.4949C7.57077 29.3104 7.0649 29.538 7.50381 30.0422C9.10621 31.9851 14.3576 36.6682 21.2122 36.6682C28.0715 36.6682 32.1521 32.9254 32.6626 32.2725C33.1696 31.6251 32.8115 31.268 32.2991 31.4819H32.2992ZM35.6994 29.6041C35.3743 29.1807 33.7224 29.1018 32.6829 29.2295C31.6417 29.3535 30.0789 29.9898 30.2147 30.3719C30.2844 30.515 30.4268 30.4508 31.142 30.3865C31.8592 30.315 33.8684 30.0614 34.2871 30.6087C34.7077 31.1598 33.6463 33.7849 33.4524 34.2083C33.2651 34.6317 33.524 34.7409 33.8758 34.4589C34.2228 34.177 34.8509 33.447 35.2725 32.414C35.6911 31.3754 35.9466 29.9264 35.6994 29.6041Z" fill="#274870"/>
<path fill-rule="evenodd" clip-rule="evenodd" d="M24.1573 19.7238C24.1573 21.2356 24.1955 22.4965 23.4314 23.8391C22.8146 24.9308 21.8376 25.6021 20.746 25.6021C19.2559 25.6021 18.3881 24.4668 18.3881 22.7912C18.3881 19.4836 21.3518 18.8832 24.1573 18.8832V19.7238ZM28.0707 29.1826C27.8141 29.4118 27.443 29.4282 27.1538 29.2753C25.8657 28.2056 25.6364 27.709 24.9269 26.6882C22.7983 28.8606 21.2918 29.51 18.5301 29.51C15.2661 29.51 12.7227 27.496 12.7227 23.4625C12.7227 20.3133 14.4311 18.1682 16.8598 17.1204C18.9667 16.1924 21.9086 16.0287 24.1573 15.7722V15.27C24.1573 14.3476 24.2282 13.256 23.6879 12.4592C23.213 11.7441 22.307 11.4494 21.5101 11.4494C20.031 11.4494 18.7101 12.208 18.3881 13.7799C18.3225 14.1293 18.0661 14.4732 17.7168 14.4895L13.9507 14.0857C13.6342 14.0146 13.2849 13.7582 13.3722 13.2723C14.24 8.7095 18.3607 7.33398 22.0503 7.33398C23.9388 7.33398 26.4058 7.83617 27.8959 9.26622C29.7845 11.0291 29.6043 13.3815 29.6043 15.9413V21.9889C29.6043 23.8064 30.3575 24.6032 31.067 25.5857C31.3181 25.935 31.3727 26.3554 31.0561 26.6173C30.2647 27.2776 28.8565 28.5058 28.0815 29.1935L28.0706 29.1826" fill="#274870"/>
<path d="M32.2992 31.4819C20.192 37.2439 12.6782 32.423 7.8684 29.4949C7.57077 29.3104 7.0649 29.538 7.50381 30.0422C9.10621 31.9851 14.3576 36.6682 21.2122 36.6682C28.0715 36.6682 32.1521 32.9254 32.6626 32.2725C33.1696 31.6251 32.8115 31.268 32.2991 31.4819H32.2992ZM35.6994 29.6041C35.3743 29.1807 33.7224 29.1018 32.6829 29.2295C31.6417 29.3535 30.0789 29.9898 30.2147 30.3719C30.2844 30.515 30.4268 30.4508 31.142 30.3865C31.8592 30.315 33.8684 30.0614 34.2871 30.6087C34.7077 31.1598 33.6463 33.7849 33.4524 34.2083C33.2651 34.6317 33.524 34.7409 33.8758 34.4589C34.2228 34.177 34.8509 33.447 35.2725 32.414C35.6911 31.3754 35.9466 29.9264 35.6994 29.6041Z" fill="#274870"/>
<path fill-rule="evenodd" clip-rule="evenodd" d="M24.1573 19.7238C24.1573 21.2356 24.1955 22.4965 23.4314 23.8391C22.8146 24.9308 21.8376 25.6021 20.746 25.6021C19.2559 25.6021 18.3881 24.4668 18.3881 22.7912C18.3881 19.4836 21.3518 18.8832 24.1573 18.8832V19.7238ZM28.0707 29.1826C27.8141 29.4118 27.443 29.4282 27.1538 29.2753C25.8657 28.2056 25.6364 27.709 24.9269 26.6882C22.7983 28.8606 21.2918 29.51 18.5301 29.51C15.2661 29.51 12.7227 27.496 12.7227 23.4625C12.7227 20.3133 14.4311 18.1682 16.8598 17.1204C18.9667 16.1924 21.9086 16.0287 24.1573 15.7722V15.27C24.1573 14.3476 24.2282 13.256 23.6879 12.4592C23.213 11.7441 22.307 11.4494 21.5101 11.4494C20.031 11.4494 18.7101 12.208 18.3881 13.7799C18.3225 14.1293 18.0661 14.4732 17.7168 14.4895L13.9507 14.0857C13.6342 14.0146 13.2849 13.7582 13.3722 13.2723C14.24 8.7095 18.3607 7.33398 22.0503 7.33398C23.9388 7.33398 26.4058 7.83617 27.8959 9.26622C29.7845 11.0291 29.6043 13.3815 29.6043 15.9413V21.9889C29.6043 23.8064 30.3575 24.6032 31.067 25.5857C31.3181 25.935 31.3727 26.3554 31.0561 26.6173C30.2647 27.2776 28.8565 28.5058 28.0815 29.1935L28.0706 29.1826" fill="#274870"/>
</svg>
