<svg width="44" height="44" viewBox="0 0 44 44" fill="none" xmlns="http://www.w3.org/2000/svg">
<g clip-path="url(#clip0_508_3933)">
<path d="M0 0H44V44H0V0Z" fill="#D4DAE2"/>
<path d="M31.3773 19.4096C31.7819 16.6643 29.7037 15.2005 26.8413 14.2066L27.7685 10.5074L25.508 9.94485L24.606 13.5529L22.802 13.1215L23.7165 9.48757L21.4553 8.92578L20.5273 12.6383L19.0895 12.2981V12.2855L15.9655 11.5006L15.3636 13.919C15.3636 13.919 17.0372 14.3119 17.0105 14.3244C17.9258 14.5601 18.083 15.1612 18.057 15.6319L17.0105 19.8669L17.2462 19.9454L16.9979 19.8928L15.5208 25.8147C15.4163 26.0897 15.1279 26.5077 14.4883 26.3372C14.5143 26.3765 12.854 25.9451 12.854 25.9451L11.7305 28.5207L14.6714 29.2522L16.279 29.671L15.3377 33.4228L17.599 33.9846L18.5143 30.2721L20.3309 30.7427L19.4038 34.4419L21.6643 35.0044L22.5922 31.2526C26.4485 31.9841 29.3509 31.6974 30.5672 28.2064C31.547 25.3967 30.5145 23.7884 28.4882 22.7166C29.9653 22.3898 31.0763 21.4092 31.3639 19.4088H31.3773V19.4096ZM26.2135 26.6515C25.5205 29.462 20.789 27.9322 19.26 27.5661L20.5014 22.5862C22.0304 22.9783 26.9458 23.7231 26.2135 26.6381V26.6515ZM26.9065 19.3703C26.2788 21.9191 22.3313 20.6251 21.0632 20.3116L22.1868 15.8016C23.4683 16.1159 27.5728 16.7169 26.9065 19.3703Z" fill="#1E4D81"/>
</g>
<defs>
<clipPath id="clip0_508_3933">
<rect width="44" height="44" rx="22" fill="white"/>
</clipPath>
</defs>
</svg>
