<svg width="44" height="41" viewBox="0 0 44 41" fill="none" xmlns="http://www.w3.org/2000/svg">
	<g clip-path="url(#clip0_3864_3106)">
		<path d="M11.0244 10.7791H25.6586C27.114 10.7791 28.5099 11.3058 29.539 12.2435C30.5682 13.1812 31.1464 14.453 31.1464 15.7791C31.1464 17.1051 30.5682 18.3769 29.539 19.3146C28.5099 20.2523 27.114 20.7791 25.6586 20.7791C27.114 20.7791 28.5099 21.3058 29.539 22.2435C30.5682 23.1812 31.1464 24.453 31.1464 25.7791C31.1464 27.1051 30.5682 28.3769 29.539 29.3146C28.5099 30.2523 27.114 30.7791 25.6586 30.7791H11.0244" stroke="#262626" stroke-width="2" stroke-linecap="round" stroke-linejoin="round"/>
		<path d="M14.6855 10.7791V30.7791" stroke="#262626" stroke-width="2" stroke-linecap="round" stroke-linejoin="round"/>
		<path d="M14.6855 20.7791H25.6612" stroke="#262626" stroke-width="2" stroke-linecap="round" stroke-linejoin="round"/>
		<path d="M16.5122 5.77905V10.7791" stroke="#262626" stroke-width="2" stroke-linecap="round" stroke-linejoin="round"/>
		<path d="M23.8267 5.77905V10.7791" stroke="#262626" stroke-width="2" stroke-linecap="round" stroke-linejoin="round"/>
		<path d="M16.5122 30.7792V35.7792" stroke="#262626" stroke-width="2" stroke-linecap="round" stroke-linejoin="round"/>
		<path d="M23.8267 30.7791V35.7791" stroke="#262626" stroke-width="2" stroke-linecap="round" stroke-linejoin="round"/>
	</g>
	<defs>
		<clipPath id="clip0_3864_3106">
			<rect width="43.9024" height="40" fill="white" transform="translate(0.0488281 0.779053)"/>
		</clipPath>
	</defs>
</svg>
