<svg width="44" height="44" viewBox="0 0 44 44" fill="none" xmlns="http://www.w3.org/2000/svg">
<g clip-path="url(#clip0_468_2650)">
<path d="M0 0H44V44H0V0Z" fill="#D4DAE2"/>
<path d="M22 6.28516V17.898L31.8214 22.2902L22 6.28516Z" fill="#274870"/>
<path d="M22.0011 6.28516L12.1797 22.2902L22.0011 17.898V6.28516Z" fill="#617C9E"/>
<path d="M22 29.8175V37.7139L31.8214 24.1211L22 29.8175Z" fill="#617C9E"/>
<path d="M22.0011 37.7139V29.8175L12.1797 24.1211L22.0011 37.7139Z" fill="#274870"/>
<path d="M22 27.987L31.8214 22.2906L22 17.8984V27.987Z" fill="#617C9E"/>
<path d="M12.1797 22.2906L22.0011 27.987V17.8984L12.1797 22.2906Z" fill="#274870"/>
<path fill-rule="evenodd" clip-rule="evenodd" d="M22.0011 27.9866L12.1797 22.2902L22.0011 6.28516L31.8225 22.2902L22.0011 27.9866ZM12.8318 21.8266L21.844 7.14158V17.8194L12.8318 21.8266ZM12.6983 22.2273L21.844 18.1652V27.5309L12.6983 22.2273ZM22.1583 18.1652V27.5309L31.2961 22.2273L22.1583 18.1652ZM22.1583 17.8194L31.1704 21.8266L22.1583 7.14158V17.8194Z" fill="#D4DAE2"/>
<path fill-rule="evenodd" clip-rule="evenodd" d="M22.0011 29.6919L12.1797 24.1133L22.0011 37.714L31.8225 24.1133L22.0011 29.6919ZM13.2797 25.0954L21.844 29.9669V36.9597L13.2797 25.0954ZM22.1583 29.9669V36.9597L30.7225 25.0954L22.1583 29.9669Z" fill="#D4DAE2"/>
</g>
<defs>
<clipPath id="clip0_468_2650">
<rect width="44" height="44" rx="22" fill="white"/>
</clipPath>
</defs>
</svg>
