<svg width="44" height="44" viewBox="0 0 44 44" fill="none" xmlns="http://www.w3.org/2000/svg">
<rect width="44" height="44" rx="22" fill="#D4DAE2"/>
<g clip-path="url(#clip0_484_3174)">
<path d="M20 11H40.54V31.54H20V11Z" fill="#F8F9FD"/>
<path d="M32.5522 15.5644H40.54V11H32.5522V15.5644ZM20 31.54H40.54V26.9756H20V31.54ZM32.5522 23.5522H40.54V18.9878H32.5522V23.5522Z" fill="#617C9E"/>
<path d="M20 11H32.5522V23.5522H20V11Z" fill="#274870"/>
<path d="M22.7606 12.3916C22.7692 12.3748 22.7823 12.3608 22.7984 12.3509C22.8145 12.3411 22.833 12.3359 22.8519 12.3359C22.8707 12.3359 22.8892 12.3411 22.9053 12.3509C22.9214 12.3608 22.9345 12.3748 22.9432 12.3916L23.2513 13.2018C23.2627 13.2474 23.3083 13.2702 23.3426 13.2702L24.2098 13.3159C24.3011 13.3159 24.3353 13.43 24.2669 13.4985L23.5822 14.0348C23.5673 14.0493 23.5571 14.0679 23.5531 14.0883C23.549 14.1087 23.5512 14.1298 23.5594 14.1489L23.7876 14.9705C23.7945 14.9913 23.7946 15.0139 23.7878 15.0347C23.781 15.0556 23.7677 15.0738 23.7499 15.0866C23.732 15.0993 23.7105 15.106 23.6885 15.1057C23.6666 15.1053 23.6453 15.0979 23.6278 15.0846L22.9089 14.6168C22.892 14.6055 22.8722 14.5994 22.8519 14.5994C22.8316 14.5994 22.8117 14.6055 22.7948 14.6168L22.0759 15.0846C22.0585 15.0979 22.0372 15.1053 22.0152 15.1057C21.9933 15.106 21.9718 15.0993 21.9539 15.0866C21.936 15.0738 21.9227 15.0556 21.9159 15.0347C21.9091 15.0139 21.9092 14.9913 21.9162 14.9705L22.1444 14.1375C22.1513 14.1173 22.1516 14.0954 22.1455 14.075C22.1394 14.0545 22.127 14.0365 22.1102 14.0234L21.4369 13.4985C21.4208 13.4855 21.4089 13.4681 21.4029 13.4483C21.3969 13.4285 21.397 13.4074 21.4031 13.3877C21.4093 13.368 21.4212 13.3506 21.4374 13.3378C21.4537 13.325 21.4733 13.3173 21.494 13.3159L22.3612 13.2702C22.3954 13.2702 22.4411 13.2474 22.4525 13.2018L22.7606 12.403V12.3916ZM22.7606 15.8149C22.7692 15.7982 22.7823 15.7841 22.7984 15.7743C22.8145 15.7645 22.833 15.7593 22.8519 15.7593C22.8707 15.7593 22.8892 15.7645 22.9053 15.7743C22.9214 15.7841 22.9345 15.7982 22.9432 15.8149L23.2513 16.6251C23.2627 16.6708 23.3083 16.6936 23.3426 16.6936L24.2098 16.7392C24.3011 16.7392 24.3353 16.8533 24.2669 16.9218L23.5822 17.4581C23.5673 17.4726 23.5571 17.4913 23.5531 17.5116C23.549 17.532 23.5512 17.5531 23.5594 17.5722L23.7876 18.3938C23.7945 18.4147 23.7946 18.4372 23.7878 18.4581C23.781 18.479 23.7677 18.4971 23.7499 18.5099C23.732 18.5227 23.7105 18.5294 23.6885 18.529C23.6666 18.5287 23.6453 18.5213 23.6278 18.5079L22.9089 18.0401C22.892 18.0288 22.8722 18.0228 22.8519 18.0228C22.8316 18.0228 22.8117 18.0288 22.7948 18.0401L22.0759 18.5079C22.0585 18.5213 22.0372 18.5287 22.0152 18.529C21.9933 18.5294 21.9718 18.5227 21.9539 18.5099C21.936 18.4971 21.9227 18.479 21.9159 18.4581C21.9091 18.4372 21.9092 18.4147 21.9162 18.3938L22.1444 17.5608C22.1513 17.5406 22.1516 17.5187 22.1455 17.4983C22.1394 17.4778 22.127 17.4598 22.1102 17.4467L21.4369 16.9218C21.4208 16.9089 21.4089 16.8914 21.4029 16.8716C21.3969 16.8519 21.397 16.8308 21.4031 16.811C21.4093 16.7913 21.4212 16.7739 21.4374 16.7611C21.4537 16.7483 21.4733 16.7407 21.494 16.7392L22.3612 16.6936C22.3954 16.6936 22.4411 16.6708 22.4525 16.6251L22.7606 15.8263V15.8149ZM22.7606 19.2383C22.7692 19.2215 22.7823 19.2074 22.7984 19.1976C22.8145 19.1878 22.833 19.1826 22.8519 19.1826C22.8707 19.1826 22.8892 19.1878 22.9053 19.1976C22.9214 19.2074 22.9345 19.2215 22.9432 19.2383L23.2513 20.0484C23.2627 20.0941 23.3083 20.1169 23.3426 20.1169L24.2098 20.1626C24.3011 20.1626 24.3353 20.2767 24.2669 20.3451L23.5822 20.8815C23.5673 20.8959 23.5571 20.9146 23.5531 20.935C23.549 20.9553 23.5512 20.9765 23.5594 20.9956L23.7876 21.8172C23.7945 21.838 23.7946 21.8605 23.7878 21.8814C23.781 21.9023 23.7677 21.9205 23.7499 21.9332C23.732 21.946 23.7105 21.9527 23.6885 21.9523C23.6666 21.952 23.6453 21.9446 23.6278 21.9313L22.9089 21.4634C22.892 21.4521 22.8722 21.4461 22.8519 21.4461C22.8316 21.4461 22.8117 21.4521 22.7948 21.4634L22.0759 21.9313C22.0585 21.9446 22.0372 21.952 22.0152 21.9523C21.9933 21.9527 21.9718 21.946 21.9539 21.9332C21.936 21.9205 21.9227 21.9023 21.9159 21.8814C21.9091 21.8605 21.9092 21.838 21.9162 21.8172L22.1444 20.9842C22.1513 20.9639 22.1516 20.9421 22.1455 20.9216C22.1394 20.9012 22.127 20.8831 22.1102 20.87L21.4369 20.3451C21.4208 20.3322 21.4089 20.3147 21.4029 20.295C21.3969 20.2752 21.397 20.2541 21.4031 20.2344C21.4093 20.2147 21.4212 20.1973 21.4374 20.1844C21.4537 20.1716 21.4733 20.164 21.494 20.1626L22.3612 20.1169C22.3954 20.1169 22.4411 20.0941 22.4525 20.0484L22.7606 19.2497V19.2383ZM26.1839 12.3916C26.1926 12.3748 26.2057 12.3608 26.2218 12.3509C26.2379 12.3411 26.2564 12.3359 26.2752 12.3359C26.2941 12.3359 26.3126 12.3411 26.3287 12.3509C26.3448 12.3608 26.3579 12.3748 26.3665 12.3916L26.6746 13.2018C26.686 13.2474 26.7317 13.2702 26.7659 13.2702L27.6331 13.3159C27.7244 13.3159 27.7587 13.43 27.6902 13.4985L27.0055 14.0348C26.9906 14.0493 26.9805 14.0679 26.9764 14.0883C26.9723 14.1087 26.9745 14.1298 26.9827 14.1489L27.2109 14.9705C27.2179 14.9913 27.218 15.0139 27.2112 15.0347C27.2044 15.0556 27.1911 15.0738 27.1732 15.0866C27.1553 15.0993 27.1338 15.106 27.1119 15.1057C27.0899 15.1053 27.0686 15.0979 27.0512 15.0846L26.3323 14.6168C26.3154 14.6055 26.2955 14.5994 26.2752 14.5994C26.2549 14.5994 26.235 14.6055 26.2182 14.6168L25.4993 15.0846C25.4818 15.0979 25.4605 15.1053 25.4386 15.1057C25.4166 15.106 25.3951 15.0993 25.3772 15.0866C25.3594 15.0738 25.346 15.0556 25.3393 15.0347C25.3325 15.0139 25.3326 14.9913 25.3395 14.9705L25.5677 14.1375C25.5746 14.1173 25.575 14.0954 25.5688 14.075C25.5627 14.0545 25.5503 14.0365 25.5335 14.0234L24.8602 13.4985C24.8441 13.4855 24.8323 13.4681 24.8262 13.4483C24.8202 13.4285 24.8203 13.4074 24.8264 13.3877C24.8326 13.368 24.8446 13.3506 24.8608 13.3378C24.877 13.325 24.8967 13.3173 24.9173 13.3159L25.7845 13.2702C25.8188 13.2702 25.8644 13.2474 25.8758 13.2018L26.1839 12.403V12.3916ZM26.1839 15.8149C26.1926 15.7982 26.2057 15.7841 26.2218 15.7743C26.2379 15.7645 26.2564 15.7593 26.2752 15.7593C26.2941 15.7593 26.3126 15.7645 26.3287 15.7743C26.3448 15.7841 26.3579 15.7982 26.3665 15.8149L26.6746 16.6251C26.686 16.6708 26.7317 16.6936 26.7659 16.6936L27.6331 16.7392C27.7244 16.7392 27.7587 16.8533 27.6902 16.9218L27.0055 17.4581C26.9906 17.4726 26.9805 17.4913 26.9764 17.5116C26.9723 17.532 26.9745 17.5531 26.9827 17.5722L27.2109 18.3938C27.2179 18.4147 27.218 18.4372 27.2112 18.4581C27.2044 18.479 27.1911 18.4971 27.1732 18.5099C27.1553 18.5227 27.1338 18.5294 27.1119 18.529C27.0899 18.5287 27.0686 18.5213 27.0512 18.5079L26.3323 18.0401C26.3154 18.0288 26.2955 18.0228 26.2752 18.0228C26.2549 18.0228 26.235 18.0288 26.2182 18.0401L25.4993 18.5079C25.4818 18.5213 25.4605 18.5287 25.4386 18.529C25.4166 18.5294 25.3951 18.5227 25.3772 18.5099C25.3594 18.4971 25.346 18.479 25.3393 18.4581C25.3325 18.4372 25.3326 18.4147 25.3395 18.3938L25.5677 17.5608C25.5746 17.5406 25.575 17.5187 25.5688 17.4983C25.5627 17.4778 25.5503 17.4598 25.5335 17.4467L24.8602 16.9218C24.8441 16.9089 24.8323 16.8914 24.8262 16.8716C24.8202 16.8519 24.8203 16.8308 24.8264 16.811C24.8326 16.7913 24.8446 16.7739 24.8608 16.7611C24.877 16.7483 24.8967 16.7407 24.9173 16.7392L25.7845 16.6936C25.8188 16.6936 25.8644 16.6708 25.8758 16.6251L26.1839 15.8263V15.8149ZM26.1839 19.2383C26.1926 19.2215 26.2057 19.2074 26.2218 19.1976C26.2379 19.1878 26.2564 19.1826 26.2752 19.1826C26.2941 19.1826 26.3126 19.1878 26.3287 19.1976C26.3448 19.2074 26.3579 19.2215 26.3665 19.2383L26.6746 20.0484C26.686 20.0941 26.7317 20.1169 26.7659 20.1169L27.6331 20.1626C27.7244 20.1626 27.7587 20.2767 27.6902 20.3451L27.0055 20.8815C26.9906 20.8959 26.9805 20.9146 26.9764 20.935C26.9723 20.9553 26.9745 20.9765 26.9827 20.9956L27.2109 21.8172C27.2179 21.838 27.218 21.8605 27.2112 21.8814C27.2044 21.9023 27.1911 21.9205 27.1732 21.9332C27.1553 21.946 27.1338 21.9527 27.1119 21.9523C27.0899 21.952 27.0686 21.9446 27.0512 21.9313L26.3323 21.4634C26.3154 21.4521 26.2955 21.4461 26.2752 21.4461C26.2549 21.4461 26.235 21.4521 26.2182 21.4634L25.4993 21.9313C25.4818 21.9446 25.4605 21.952 25.4386 21.9523C25.4166 21.9527 25.3951 21.946 25.3772 21.9332C25.3594 21.9205 25.346 21.9023 25.3393 21.8814C25.3325 21.8605 25.3326 21.838 25.3395 21.8172L25.5677 20.9842C25.5746 20.9639 25.575 20.9421 25.5688 20.9216C25.5627 20.9012 25.5503 20.8831 25.5335 20.87L24.8602 20.3451C24.8441 20.3322 24.8323 20.3147 24.8262 20.295C24.8202 20.2752 24.8203 20.2541 24.8264 20.2344C24.8326 20.2147 24.8446 20.1973 24.8608 20.1844C24.877 20.1716 24.8967 20.164 24.9173 20.1626L25.7845 20.1169C25.8188 20.1169 25.8644 20.0941 25.8758 20.0484L26.1839 19.2497V19.2383ZM29.6073 12.3916C29.6159 12.3748 29.629 12.3608 29.6451 12.3509C29.6612 12.3411 29.6797 12.3359 29.6985 12.3359C29.7174 12.3359 29.7359 12.3411 29.752 12.3509C29.7681 12.3608 29.7812 12.3748 29.7898 12.3916L30.0979 13.2018C30.1093 13.2474 30.155 13.2702 30.1892 13.2702L31.0565 13.3159C31.1478 13.3159 31.182 13.43 31.1135 13.4985L30.4289 14.0348C30.414 14.0493 30.4038 14.0679 30.3997 14.0883C30.3956 14.1087 30.3978 14.1298 30.406 14.1489L30.6343 14.9705C30.6412 14.9913 30.6413 15.0139 30.6345 15.0347C30.6277 15.0556 30.6144 15.0738 30.5965 15.0866C30.5786 15.0993 30.5572 15.106 30.5352 15.1057C30.5132 15.1053 30.492 15.0979 30.4745 15.0846L29.7556 14.6168C29.7387 14.6055 29.7189 14.5994 29.6985 14.5994C29.6782 14.5994 29.6584 14.6055 29.6415 14.6168L28.9226 15.0846C28.9051 15.0979 28.8839 15.1053 28.8619 15.1057C28.8399 15.106 28.8184 15.0993 28.8006 15.0866C28.7827 15.0738 28.7694 15.0556 28.7626 15.0347C28.7558 15.0139 28.7559 14.9913 28.7628 14.9705L28.9911 14.1375C28.9979 14.1173 28.9983 14.0954 28.9922 14.075C28.986 14.0545 28.9737 14.0365 28.9568 14.0234L28.2836 13.4985C28.2674 13.4855 28.2556 13.4681 28.2496 13.4483C28.2435 13.4285 28.2436 13.4074 28.2498 13.3877C28.2559 13.368 28.2679 13.3506 28.2841 13.3378C28.3003 13.325 28.32 13.3173 28.3406 13.3159L29.2079 13.2702C29.2421 13.2702 29.2877 13.2474 29.2992 13.2018L29.6073 12.403V12.3916ZM29.6073 15.8149C29.6159 15.7982 29.629 15.7841 29.6451 15.7743C29.6612 15.7645 29.6797 15.7593 29.6985 15.7593C29.7174 15.7593 29.7359 15.7645 29.752 15.7743C29.7681 15.7841 29.7812 15.7982 29.7898 15.8149L30.0979 16.6251C30.1093 16.6708 30.155 16.6936 30.1892 16.6936L31.0565 16.7392C31.1478 16.7392 31.182 16.8533 31.1135 16.9218L30.4289 17.4581C30.414 17.4726 30.4038 17.4913 30.3997 17.5116C30.3956 17.532 30.3978 17.5531 30.406 17.5722L30.6343 18.3938C30.6412 18.4147 30.6413 18.4372 30.6345 18.4581C30.6277 18.479 30.6144 18.4971 30.5965 18.5099C30.5786 18.5227 30.5572 18.5294 30.5352 18.529C30.5132 18.5287 30.492 18.5213 30.4745 18.5079L29.7556 18.0401C29.7387 18.0288 29.7189 18.0228 29.6985 18.0228C29.6782 18.0228 29.6584 18.0288 29.6415 18.0401L28.9226 18.5079C28.9051 18.5213 28.8839 18.5287 28.8619 18.529C28.8399 18.5294 28.8184 18.5227 28.8006 18.5099C28.7827 18.4971 28.7694 18.479 28.7626 18.4581C28.7558 18.4372 28.7559 18.4147 28.7628 18.3938L28.9911 17.5608C28.9979 17.5406 28.9983 17.5187 28.9922 17.4983C28.986 17.4778 28.9737 17.4598 28.9568 17.4467L28.2836 16.9218C28.2674 16.9089 28.2556 16.8914 28.2496 16.8716C28.2435 16.8519 28.2436 16.8308 28.2498 16.811C28.2559 16.7913 28.2679 16.7739 28.2841 16.7611C28.3003 16.7483 28.32 16.7407 28.3406 16.7392L29.2079 16.6936C29.2421 16.6936 29.2877 16.6708 29.2992 16.6251L29.6073 15.8263V15.8149ZM29.6073 19.2383C29.6159 19.2215 29.629 19.2074 29.6451 19.1976C29.6612 19.1878 29.6797 19.1826 29.6985 19.1826C29.7174 19.1826 29.7359 19.1878 29.752 19.1976C29.7681 19.2074 29.7812 19.2215 29.7898 19.2383L30.0979 20.0484C30.1093 20.0941 30.155 20.1169 30.1892 20.1169L31.0565 20.1626C31.1478 20.1626 31.182 20.2767 31.1135 20.3451L30.4289 20.8815C30.414 20.8959 30.4038 20.9146 30.3997 20.935C30.3956 20.9553 30.3978 20.9765 30.406 20.9956L30.6343 21.8172C30.6412 21.838 30.6413 21.8605 30.6345 21.8814C30.6277 21.9023 30.6144 21.9205 30.5965 21.9332C30.5786 21.946 30.5572 21.9527 30.5352 21.9523C30.5132 21.952 30.492 21.9446 30.4745 21.9313L29.7556 21.4634C29.7387 21.4521 29.7189 21.4461 29.6985 21.4461C29.6782 21.4461 29.6584 21.4521 29.6415 21.4634L28.9226 21.9313C28.9051 21.9446 28.8839 21.952 28.8619 21.9523C28.8399 21.9527 28.8184 21.946 28.8006 21.9332C28.7827 21.9205 28.7694 21.9023 28.7626 21.8814C28.7558 21.8605 28.7559 21.838 28.7628 21.8172L28.9911 20.9842C28.9979 20.9639 28.9983 20.9421 28.9922 20.9216C28.986 20.9012 28.9737 20.8831 28.9568 20.87L28.2836 20.3451C28.2674 20.3322 28.2556 20.3147 28.2496 20.295C28.2435 20.2752 28.2436 20.2541 28.2498 20.2344C28.2559 20.2147 28.2679 20.1973 28.2841 20.1844C28.3003 20.1716 28.32 20.164 28.3406 20.1626L29.2079 20.1169C29.2421 20.1169 29.2877 20.0941 29.2992 20.0484L29.6073 19.2497V19.2383Z" fill="#F8F9FD"/>
</g>
<g clip-path="url(#clip1_484_3174)">
<path d="M3.07812 10.5391H23.6181V31.0791H3.07812V10.5391Z" fill="#274870"/>
<path d="M13.2901 12.8203L13.7123 14.1212H15.0816L13.9748 14.92L14.397 16.2208L13.2901 15.422L12.1946 16.2208L12.6054 14.9314L11.51 14.1326H12.8793L13.2787 12.8203H13.2901ZM7.68724 15.1482L8.90823 15.7644L9.86676 14.8058L9.66136 16.1524L10.8709 16.7686L9.52443 16.9854L9.30762 18.3319L8.69142 17.1223L7.34491 17.3277L8.30344 16.3692L7.68724 15.1482ZM5.35938 20.751L6.66024 20.3288V18.9595L7.45902 20.0664L8.7713 19.667L7.97252 20.7624L8.7713 21.8693L7.48184 21.4471L6.68306 22.554V21.1847L5.35938 20.751ZM7.68724 26.3539L8.30344 25.1443L7.34491 24.1744L8.69142 24.3912L9.30762 23.1702L9.52443 24.5281L10.8709 24.7335L9.66136 25.3611L9.86676 26.7076L8.90823 25.7377L7.68724 26.3539ZM13.2901 28.6818L12.8679 27.3809H11.4986L12.6054 26.5821L12.206 25.2812L13.3015 26.08L14.4084 25.2812L13.9862 26.5821L15.0931 27.3809H13.7237L13.3015 28.6818H13.2901ZM18.893 26.3539L17.6834 25.7377L16.7134 26.7076L16.9302 25.3611L15.7093 24.7335L17.0672 24.5281L17.2726 23.1702L17.9002 24.3912L19.2467 24.1744L18.2768 25.1443L18.893 26.3539ZM21.2208 20.751L19.92 21.1732V22.5426L19.1212 21.4357L17.8203 21.8579L18.6191 20.751L17.8203 19.6556L19.1212 20.0664L19.92 18.9709V20.3402L21.2208 20.751ZM18.893 15.1482L18.2768 16.3692L19.2467 17.3277L17.9002 17.1223L17.2726 18.3319L17.0672 16.9854L15.7093 16.7686L16.9302 16.1524L16.7134 14.8058L17.6834 15.7644L18.893 15.1482Z" fill="#D4DAE2"/>
</g>
<defs>
<clipPath id="clip0_484_3174">
<rect x="20" y="11" width="20.54" height="20.54" rx="10.27" fill="white"/>
</clipPath>
<clipPath id="clip1_484_3174">
<rect x="3.07812" y="10.5391" width="20.54" height="20.54" rx="10.27" fill="white"/>
</clipPath>
</defs>
</svg>
