<svg width="44" height="41" viewBox="0 0 44 41" fill="none" xmlns="http://www.w3.org/2000/svg">
	<path d="M12.855 10.7791H9.19645C8.18618 10.7791 7.36719 11.5253 7.36719 12.4458V17.446C7.36719 18.3665 8.18618 19.1127 9.19645 19.1127H12.855C13.8653 19.1127 14.6843 18.3665 14.6843 17.446V12.4458C14.6843 11.5253 13.8653 10.7791 12.855 10.7791Z" stroke="#262626" stroke-width="2" stroke-linecap="round" stroke-linejoin="round"/>
	<path d="M11.0244 7.44312V10.7762" stroke="#262626" stroke-width="2" stroke-linecap="round" stroke-linejoin="round"/>
	<path d="M11.0244 19.115V34.115" stroke="#262626" stroke-width="2" stroke-linecap="round" stroke-linejoin="round"/>
	<path d="M23.8306 24.115H20.172C19.1618 24.115 18.3428 24.8612 18.3428 25.7817V30.7817C18.3428 31.7021 19.1618 32.4483 20.172 32.4483H23.8306C24.8409 32.4483 25.6598 31.7021 25.6598 30.7817V25.7817C25.6598 24.8612 24.8409 24.115 23.8306 24.115Z" stroke="#262626" stroke-width="2" stroke-linecap="round" stroke-linejoin="round"/>
	<path d="M22 7.44312V24.1096" stroke="#262626" stroke-width="2" stroke-linecap="round" stroke-linejoin="round"/>
	<path d="M22 32.4431V34.1101" stroke="#262626" stroke-width="2" stroke-linecap="round" stroke-linejoin="round"/>
	<path d="M34.8062 9.11499H31.1476C30.1374 9.11499 29.3184 9.86118 29.3184 10.7817V17.4483C29.3184 18.3688 30.1374 19.115 31.1476 19.115H34.8062C35.8164 19.115 36.6354 18.3688 36.6354 17.4483V10.7817C36.6354 9.86118 35.8164 9.11499 34.8062 9.11499Z" stroke="#262626" stroke-width="2" stroke-linecap="round" stroke-linejoin="round"/>
	<path d="M32.9756 7.44312V9.10978" stroke="#262626" stroke-width="2" stroke-linecap="round" stroke-linejoin="round"/>
	<path d="M32.9756 19.115V34.115" stroke="#262626" stroke-width="2" stroke-linecap="round" stroke-linejoin="round"/>
</svg>
