<svg width="44" height="44" viewBox="0 0 44 44" fill="none" xmlns="http://www.w3.org/2000/svg">
<rect width="44" height="44" rx="22" fill="#D4DAE2"/>
<g clip-path="url(#clip0_493_3259)">
<path d="M19 11H39.54V31.54H19V11Z" fill="#F8F9FD"/>
<path d="M31.5522 15.5644H39.54V11H31.5522V15.5644ZM19 31.54H39.54V26.9756H19V31.54ZM31.5522 23.5522H39.54V18.9878H31.5522V23.5522Z" fill="#617C9E"/>
<path d="M19 11H31.5522V23.5522H19V11Z" fill="#274870"/>
<path d="M21.7606 12.3916C21.7692 12.3748 21.7823 12.3608 21.7984 12.3509C21.8145 12.3411 21.833 12.3359 21.8519 12.3359C21.8707 12.3359 21.8892 12.3411 21.9053 12.3509C21.9214 12.3608 21.9345 12.3748 21.9432 12.3916L22.2513 13.2018C22.2627 13.2474 22.3083 13.2702 22.3426 13.2702L23.2098 13.3159C23.3011 13.3159 23.3353 13.43 23.2669 13.4985L22.5822 14.0348C22.5673 14.0493 22.5571 14.0679 22.5531 14.0883C22.549 14.1087 22.5512 14.1298 22.5594 14.1489L22.7876 14.9705C22.7945 14.9913 22.7946 15.0139 22.7878 15.0347C22.781 15.0556 22.7677 15.0738 22.7499 15.0866C22.732 15.0993 22.7105 15.106 22.6885 15.1057C22.6666 15.1053 22.6453 15.0979 22.6278 15.0846L21.9089 14.6168C21.892 14.6055 21.8722 14.5994 21.8519 14.5994C21.8316 14.5994 21.8117 14.6055 21.7948 14.6168L21.0759 15.0846C21.0585 15.0979 21.0372 15.1053 21.0152 15.1057C20.9933 15.106 20.9718 15.0993 20.9539 15.0866C20.936 15.0738 20.9227 15.0556 20.9159 15.0347C20.9091 15.0139 20.9092 14.9913 20.9162 14.9705L21.1444 14.1375C21.1513 14.1173 21.1516 14.0954 21.1455 14.075C21.1394 14.0545 21.127 14.0365 21.1102 14.0234L20.4369 13.4985C20.4208 13.4855 20.4089 13.4681 20.4029 13.4483C20.3969 13.4285 20.397 13.4074 20.4031 13.3877C20.4093 13.368 20.4212 13.3506 20.4374 13.3378C20.4537 13.325 20.4733 13.3173 20.494 13.3159L21.3612 13.2702C21.3954 13.2702 21.4411 13.2474 21.4525 13.2018L21.7606 12.403V12.3916ZM21.7606 15.8149C21.7692 15.7982 21.7823 15.7841 21.7984 15.7743C21.8145 15.7645 21.833 15.7593 21.8519 15.7593C21.8707 15.7593 21.8892 15.7645 21.9053 15.7743C21.9214 15.7841 21.9345 15.7982 21.9432 15.8149L22.2513 16.6251C22.2627 16.6708 22.3083 16.6936 22.3426 16.6936L23.2098 16.7392C23.3011 16.7392 23.3353 16.8533 23.2669 16.9218L22.5822 17.4581C22.5673 17.4726 22.5571 17.4913 22.5531 17.5116C22.549 17.532 22.5512 17.5531 22.5594 17.5722L22.7876 18.3938C22.7945 18.4147 22.7946 18.4372 22.7878 18.4581C22.781 18.479 22.7677 18.4971 22.7499 18.5099C22.732 18.5227 22.7105 18.5294 22.6885 18.529C22.6666 18.5287 22.6453 18.5213 22.6278 18.5079L21.9089 18.0401C21.892 18.0288 21.8722 18.0228 21.8519 18.0228C21.8316 18.0228 21.8117 18.0288 21.7948 18.0401L21.0759 18.5079C21.0585 18.5213 21.0372 18.5287 21.0152 18.529C20.9933 18.5294 20.9718 18.5227 20.9539 18.5099C20.936 18.4971 20.9227 18.479 20.9159 18.4581C20.9091 18.4372 20.9092 18.4147 20.9162 18.3938L21.1444 17.5608C21.1513 17.5406 21.1516 17.5187 21.1455 17.4983C21.1394 17.4778 21.127 17.4598 21.1102 17.4467L20.4369 16.9218C20.4208 16.9089 20.4089 16.8914 20.4029 16.8716C20.3969 16.8519 20.397 16.8308 20.4031 16.811C20.4093 16.7913 20.4212 16.7739 20.4374 16.7611C20.4537 16.7483 20.4733 16.7407 20.494 16.7392L21.3612 16.6936C21.3954 16.6936 21.4411 16.6708 21.4525 16.6251L21.7606 15.8263V15.8149ZM21.7606 19.2383C21.7692 19.2215 21.7823 19.2074 21.7984 19.1976C21.8145 19.1878 21.833 19.1826 21.8519 19.1826C21.8707 19.1826 21.8892 19.1878 21.9053 19.1976C21.9214 19.2074 21.9345 19.2215 21.9432 19.2383L22.2513 20.0484C22.2627 20.0941 22.3083 20.1169 22.3426 20.1169L23.2098 20.1626C23.3011 20.1626 23.3353 20.2767 23.2669 20.3451L22.5822 20.8815C22.5673 20.8959 22.5571 20.9146 22.5531 20.935C22.549 20.9553 22.5512 20.9765 22.5594 20.9956L22.7876 21.8172C22.7945 21.838 22.7946 21.8605 22.7878 21.8814C22.781 21.9023 22.7677 21.9205 22.7499 21.9332C22.732 21.946 22.7105 21.9527 22.6885 21.9523C22.6666 21.952 22.6453 21.9446 22.6278 21.9313L21.9089 21.4634C21.892 21.4521 21.8722 21.4461 21.8519 21.4461C21.8316 21.4461 21.8117 21.4521 21.7948 21.4634L21.0759 21.9313C21.0585 21.9446 21.0372 21.952 21.0152 21.9523C20.9933 21.9527 20.9718 21.946 20.9539 21.9332C20.936 21.9205 20.9227 21.9023 20.9159 21.8814C20.9091 21.8605 20.9092 21.838 20.9162 21.8172L21.1444 20.9842C21.1513 20.9639 21.1516 20.9421 21.1455 20.9216C21.1394 20.9012 21.127 20.8831 21.1102 20.87L20.4369 20.3451C20.4208 20.3322 20.4089 20.3147 20.4029 20.295C20.3969 20.2752 20.397 20.2541 20.4031 20.2344C20.4093 20.2147 20.4212 20.1973 20.4374 20.1844C20.4537 20.1716 20.4733 20.164 20.494 20.1626L21.3612 20.1169C21.3954 20.1169 21.4411 20.0941 21.4525 20.0484L21.7606 19.2497V19.2383ZM25.1839 12.3916C25.1926 12.3748 25.2057 12.3608 25.2218 12.3509C25.2379 12.3411 25.2564 12.3359 25.2752 12.3359C25.2941 12.3359 25.3126 12.3411 25.3287 12.3509C25.3448 12.3608 25.3579 12.3748 25.3665 12.3916L25.6746 13.2018C25.686 13.2474 25.7317 13.2702 25.7659 13.2702L26.6331 13.3159C26.7244 13.3159 26.7587 13.43 26.6902 13.4985L26.0055 14.0348C25.9906 14.0493 25.9805 14.0679 25.9764 14.0883C25.9723 14.1087 25.9745 14.1298 25.9827 14.1489L26.2109 14.9705C26.2179 14.9913 26.218 15.0139 26.2112 15.0347C26.2044 15.0556 26.1911 15.0738 26.1732 15.0866C26.1553 15.0993 26.1338 15.106 26.1119 15.1057C26.0899 15.1053 26.0686 15.0979 26.0512 15.0846L25.3323 14.6168C25.3154 14.6055 25.2955 14.5994 25.2752 14.5994C25.2549 14.5994 25.235 14.6055 25.2182 14.6168L24.4993 15.0846C24.4818 15.0979 24.4605 15.1053 24.4386 15.1057C24.4166 15.106 24.3951 15.0993 24.3772 15.0866C24.3594 15.0738 24.346 15.0556 24.3393 15.0347C24.3325 15.0139 24.3326 14.9913 24.3395 14.9705L24.5677 14.1375C24.5746 14.1173 24.575 14.0954 24.5688 14.075C24.5627 14.0545 24.5503 14.0365 24.5335 14.0234L23.8602 13.4985C23.8441 13.4855 23.8323 13.4681 23.8262 13.4483C23.8202 13.4285 23.8203 13.4074 23.8264 13.3877C23.8326 13.368 23.8446 13.3506 23.8608 13.3378C23.877 13.325 23.8967 13.3173 23.9173 13.3159L24.7845 13.2702C24.8188 13.2702 24.8644 13.2474 24.8758 13.2018L25.1839 12.403V12.3916ZM25.1839 15.8149C25.1926 15.7982 25.2057 15.7841 25.2218 15.7743C25.2379 15.7645 25.2564 15.7593 25.2752 15.7593C25.2941 15.7593 25.3126 15.7645 25.3287 15.7743C25.3448 15.7841 25.3579 15.7982 25.3665 15.8149L25.6746 16.6251C25.686 16.6708 25.7317 16.6936 25.7659 16.6936L26.6331 16.7392C26.7244 16.7392 26.7587 16.8533 26.6902 16.9218L26.0055 17.4581C25.9906 17.4726 25.9805 17.4913 25.9764 17.5116C25.9723 17.532 25.9745 17.5531 25.9827 17.5722L26.2109 18.3938C26.2179 18.4147 26.218 18.4372 26.2112 18.4581C26.2044 18.479 26.1911 18.4971 26.1732 18.5099C26.1553 18.5227 26.1338 18.5294 26.1119 18.529C26.0899 18.5287 26.0686 18.5213 26.0512 18.5079L25.3323 18.0401C25.3154 18.0288 25.2955 18.0228 25.2752 18.0228C25.2549 18.0228 25.235 18.0288 25.2182 18.0401L24.4993 18.5079C24.4818 18.5213 24.4605 18.5287 24.4386 18.529C24.4166 18.5294 24.3951 18.5227 24.3772 18.5099C24.3594 18.4971 24.346 18.479 24.3393 18.4581C24.3325 18.4372 24.3326 18.4147 24.3395 18.3938L24.5677 17.5608C24.5746 17.5406 24.575 17.5187 24.5688 17.4983C24.5627 17.4778 24.5503 17.4598 24.5335 17.4467L23.8602 16.9218C23.8441 16.9089 23.8323 16.8914 23.8262 16.8716C23.8202 16.8519 23.8203 16.8308 23.8264 16.811C23.8326 16.7913 23.8446 16.7739 23.8608 16.7611C23.877 16.7483 23.8967 16.7407 23.9173 16.7392L24.7845 16.6936C24.8188 16.6936 24.8644 16.6708 24.8758 16.6251L25.1839 15.8263V15.8149ZM25.1839 19.2383C25.1926 19.2215 25.2057 19.2074 25.2218 19.1976C25.2379 19.1878 25.2564 19.1826 25.2752 19.1826C25.2941 19.1826 25.3126 19.1878 25.3287 19.1976C25.3448 19.2074 25.3579 19.2215 25.3665 19.2383L25.6746 20.0484C25.686 20.0941 25.7317 20.1169 25.7659 20.1169L26.6331 20.1626C26.7244 20.1626 26.7587 20.2767 26.6902 20.3451L26.0055 20.8815C25.9906 20.8959 25.9805 20.9146 25.9764 20.935C25.9723 20.9553 25.9745 20.9765 25.9827 20.9956L26.2109 21.8172C26.2179 21.838 26.218 21.8605 26.2112 21.8814C26.2044 21.9023 26.1911 21.9205 26.1732 21.9332C26.1553 21.946 26.1338 21.9527 26.1119 21.9523C26.0899 21.952 26.0686 21.9446 26.0512 21.9313L25.3323 21.4634C25.3154 21.4521 25.2955 21.4461 25.2752 21.4461C25.2549 21.4461 25.235 21.4521 25.2182 21.4634L24.4993 21.9313C24.4818 21.9446 24.4605 21.952 24.4386 21.9523C24.4166 21.9527 24.3951 21.946 24.3772 21.9332C24.3594 21.9205 24.346 21.9023 24.3393 21.8814C24.3325 21.8605 24.3326 21.838 24.3395 21.8172L24.5677 20.9842C24.5746 20.9639 24.575 20.9421 24.5688 20.9216C24.5627 20.9012 24.5503 20.8831 24.5335 20.87L23.8602 20.3451C23.8441 20.3322 23.8323 20.3147 23.8262 20.295C23.8202 20.2752 23.8203 20.2541 23.8264 20.2344C23.8326 20.2147 23.8446 20.1973 23.8608 20.1844C23.877 20.1716 23.8967 20.164 23.9173 20.1626L24.7845 20.1169C24.8188 20.1169 24.8644 20.0941 24.8758 20.0484L25.1839 19.2497V19.2383ZM28.6073 12.3916C28.6159 12.3748 28.629 12.3608 28.6451 12.3509C28.6612 12.3411 28.6797 12.3359 28.6985 12.3359C28.7174 12.3359 28.7359 12.3411 28.752 12.3509C28.7681 12.3608 28.7812 12.3748 28.7898 12.3916L29.0979 13.2018C29.1093 13.2474 29.155 13.2702 29.1892 13.2702L30.0565 13.3159C30.1478 13.3159 30.182 13.43 30.1135 13.4985L29.4289 14.0348C29.414 14.0493 29.4038 14.0679 29.3997 14.0883C29.3956 14.1087 29.3978 14.1298 29.406 14.1489L29.6343 14.9705C29.6412 14.9913 29.6413 15.0139 29.6345 15.0347C29.6277 15.0556 29.6144 15.0738 29.5965 15.0866C29.5786 15.0993 29.5572 15.106 29.5352 15.1057C29.5132 15.1053 29.492 15.0979 29.4745 15.0846L28.7556 14.6168C28.7387 14.6055 28.7189 14.5994 28.6985 14.5994C28.6782 14.5994 28.6584 14.6055 28.6415 14.6168L27.9226 15.0846C27.9051 15.0979 27.8839 15.1053 27.8619 15.1057C27.8399 15.106 27.8184 15.0993 27.8006 15.0866C27.7827 15.0738 27.7694 15.0556 27.7626 15.0347C27.7558 15.0139 27.7559 14.9913 27.7628 14.9705L27.9911 14.1375C27.9979 14.1173 27.9983 14.0954 27.9922 14.075C27.986 14.0545 27.9737 14.0365 27.9568 14.0234L27.2836 13.4985C27.2674 13.4855 27.2556 13.4681 27.2496 13.4483C27.2435 13.4285 27.2436 13.4074 27.2498 13.3877C27.2559 13.368 27.2679 13.3506 27.2841 13.3378C27.3003 13.325 27.32 13.3173 27.3406 13.3159L28.2079 13.2702C28.2421 13.2702 28.2877 13.2474 28.2992 13.2018L28.6073 12.403V12.3916ZM28.6073 15.8149C28.6159 15.7982 28.629 15.7841 28.6451 15.7743C28.6612 15.7645 28.6797 15.7593 28.6985 15.7593C28.7174 15.7593 28.7359 15.7645 28.752 15.7743C28.7681 15.7841 28.7812 15.7982 28.7898 15.8149L29.0979 16.6251C29.1093 16.6708 29.155 16.6936 29.1892 16.6936L30.0565 16.7392C30.1478 16.7392 30.182 16.8533 30.1135 16.9218L29.4289 17.4581C29.414 17.4726 29.4038 17.4913 29.3997 17.5116C29.3956 17.532 29.3978 17.5531 29.406 17.5722L29.6343 18.3938C29.6412 18.4147 29.6413 18.4372 29.6345 18.4581C29.6277 18.479 29.6144 18.4971 29.5965 18.5099C29.5786 18.5227 29.5572 18.5294 29.5352 18.529C29.5132 18.5287 29.492 18.5213 29.4745 18.5079L28.7556 18.0401C28.7387 18.0288 28.7189 18.0228 28.6985 18.0228C28.6782 18.0228 28.6584 18.0288 28.6415 18.0401L27.9226 18.5079C27.9051 18.5213 27.8839 18.5287 27.8619 18.529C27.8399 18.5294 27.8184 18.5227 27.8006 18.5099C27.7827 18.4971 27.7694 18.479 27.7626 18.4581C27.7558 18.4372 27.7559 18.4147 27.7628 18.3938L27.9911 17.5608C27.9979 17.5406 27.9983 17.5187 27.9922 17.4983C27.986 17.4778 27.9737 17.4598 27.9568 17.4467L27.2836 16.9218C27.2674 16.9089 27.2556 16.8914 27.2496 16.8716C27.2435 16.8519 27.2436 16.8308 27.2498 16.811C27.2559 16.7913 27.2679 16.7739 27.2841 16.7611C27.3003 16.7483 27.32 16.7407 27.3406 16.7392L28.2079 16.6936C28.2421 16.6936 28.2877 16.6708 28.2992 16.6251L28.6073 15.8263V15.8149ZM28.6073 19.2383C28.6159 19.2215 28.629 19.2074 28.6451 19.1976C28.6612 19.1878 28.6797 19.1826 28.6985 19.1826C28.7174 19.1826 28.7359 19.1878 28.752 19.1976C28.7681 19.2074 28.7812 19.2215 28.7898 19.2383L29.0979 20.0484C29.1093 20.0941 29.155 20.1169 29.1892 20.1169L30.0565 20.1626C30.1478 20.1626 30.182 20.2767 30.1135 20.3451L29.4289 20.8815C29.414 20.8959 29.4038 20.9146 29.3997 20.935C29.3956 20.9553 29.3978 20.9765 29.406 20.9956L29.6343 21.8172C29.6412 21.838 29.6413 21.8605 29.6345 21.8814C29.6277 21.9023 29.6144 21.9205 29.5965 21.9332C29.5786 21.946 29.5572 21.9527 29.5352 21.9523C29.5132 21.952 29.492 21.9446 29.4745 21.9313L28.7556 21.4634C28.7387 21.4521 28.7189 21.4461 28.6985 21.4461C28.6782 21.4461 28.6584 21.4521 28.6415 21.4634L27.9226 21.9313C27.9051 21.9446 27.8839 21.952 27.8619 21.9523C27.8399 21.9527 27.8184 21.946 27.8006 21.9332C27.7827 21.9205 27.7694 21.9023 27.7626 21.8814C27.7558 21.8605 27.7559 21.838 27.7628 21.8172L27.9911 20.9842C27.9979 20.9639 27.9983 20.9421 27.9922 20.9216C27.986 20.9012 27.9737 20.8831 27.9568 20.87L27.2836 20.3451C27.2674 20.3322 27.2556 20.3147 27.2496 20.295C27.2435 20.2752 27.2436 20.2541 27.2498 20.2344C27.2559 20.2147 27.2679 20.1973 27.2841 20.1844C27.3003 20.1716 27.32 20.164 27.3406 20.1626L28.2079 20.1169C28.2421 20.1169 28.2877 20.0941 28.2992 20.0484L28.6073 19.2497V19.2383Z" fill="#F8F9FD"/>
</g>
<g clip-path="url(#clip1_493_3259)">
<path d="M3 11H23.54V31.54H3V11Z" fill="white"/>
<path d="M10.9878 11H4.14111L10.9878 17.2761V11ZM15.5522 11V17.8467L22.9694 11H15.5522ZM23.54 16.135L20.1167 18.9878H23.54V16.135ZM23.54 23.5522H18.9756L23.54 27.5461V23.5522ZM22.3989 31.54L15.5522 25.2639V31.54H22.3989ZM10.9878 31.54V24.6933L3.57056 31.54H10.9878ZM3 26.405L6.42333 23.5522H3V26.405ZM3 18.9878H7.56444L3 14.9939V18.9878Z" fill="#274870"/>
<path d="M10.9882 18.9883L-4.41675 5.29492V7.91948L8.70602 18.9883H10.9882ZM12.1294 20.1294V11.0005H14.4116V20.1294H23.5405V22.4116H14.4116V31.5405H12.1294V22.4116H3.00047V20.1294H12.1294ZM-7.26953 37.246L8.70602 23.5527H10.9882L-4.41675 37.246H-7.26953ZM15.5527 18.9883L29.246 6.43603H31.7565L17.8349 18.9883H15.5527ZM17.8349 23.5527H15.5527L28.6755 34.9638V32.6816L17.8349 23.5527Z" fill="#939FAC"/>
</g>
<defs>
<clipPath id="clip0_493_3259">
<rect x="19" y="11" width="20.54" height="20.54" rx="10.27" fill="white"/>
</clipPath>
<clipPath id="clip1_493_3259">
<rect x="3" y="11" width="20.54" height="20.54" rx="10.27" fill="white"/>
</clipPath>
</defs>
</svg>
