<svg width="44" height="41" viewBox="0 0 44 41" fill="none" xmlns="http://www.w3.org/2000/svg">
<g clip-path="url(#clip0_3864_3054)">
<path d="M27.0178 8.95837H15.3253C14.3993 8.95837 13.6487 9.78985 13.6487 10.8155L11.6455 18.9194C11.6455 19.9451 12.3961 20.7766 13.3221 20.7766H29.0209C29.9469 20.7766 30.6975 19.9451 30.6975 18.9194L28.6943 10.8155C28.6943 9.78985 27.9437 8.95837 27.0178 8.95837Z" stroke="#2D78BD" stroke-width="2" stroke-linecap="round" stroke-linejoin="round"/>
<path d="M17.9074 20.7791H6.21492C5.28897 20.7791 4.53834 21.6105 4.53834 22.6362L2.53516 30.7401C2.53516 31.7658 3.28579 32.5972 4.21173 32.5972H19.9106C20.8365 32.5972 21.5872 31.7658 21.5872 30.7401L19.584 22.6362C19.584 21.6105 18.8333 20.7791 17.9074 20.7791Z" stroke="#2D78BD" stroke-width="2" stroke-linecap="round" stroke-linejoin="round"/>
<path d="M36.9596 20.7791H25.2672C24.3412 20.7791 23.5906 21.6105 23.5906 22.6362L21.5874 30.7401C21.5874 31.7658 22.338 32.5972 23.264 32.5972H38.9628C39.8888 32.5972 40.6394 31.7658 40.6394 30.7401L38.6362 22.6362C38.6362 21.6105 37.8856 20.7791 36.9596 20.7791Z" stroke="#2D78BD" stroke-width="2" stroke-linecap="round" stroke-linejoin="round"/>
</g>
<defs>
<clipPath id="clip0_3864_3054">
<rect width="43.9024" height="40" fill="white" transform="translate(0.0488281 0.779053)"/>
</clipPath>
</defs>
</svg>
