<svg width="44" height="44" viewBox="0 0 44 44" fill="none" xmlns="http://www.w3.org/2000/svg">
<g clip-path="url(#clip0_439_2175)">
<path d="M0 0H44V44H0V0Z" fill="#D4DAE2"/>
<path d="M8.54751 29.0882H11.4735V14.9105H8.54018L4.89062 17.4551V20.0878L8.48885 17.6336H8.54751V29.0882ZM20.2173 29.3327C23.796 29.3327 25.9691 26.5142 25.9691 22.0042V21.9847C25.9691 17.4747 23.796 14.666 20.2173 14.666C16.6362 14.666 14.4655 17.4771 14.4655 21.9847V22.0042C14.4655 26.5142 16.6362 29.3327 20.2173 29.3327ZM20.2173 26.9542C18.4573 26.9542 17.4477 25.1185 17.4477 22.0042V21.9847C17.4477 18.8705 18.4573 17.0445 20.2173 17.0445C21.9773 17.0445 22.9844 18.8705 22.9844 21.9847V22.0042C22.9844 25.1185 21.9773 26.9542 20.2173 26.9542ZM33.3611 29.3327C36.9422 29.3327 39.1128 26.5142 39.1128 22.0042V21.9847C39.1128 17.4747 36.9422 14.666 33.3611 14.666C29.7824 14.666 27.6117 17.4771 27.6117 21.9847V22.0042C27.6117 26.5142 29.7824 29.3327 33.3611 29.3327ZM33.3611 26.9542C31.6011 26.9542 30.594 25.1185 30.594 22.0042V21.9847C30.594 18.8705 31.6011 17.0445 33.3611 17.0445C35.1211 17.0445 36.1306 18.8705 36.1306 21.9847V22.0042C36.1306 25.1185 35.1235 26.9542 33.3611 26.9542Z" fill="#274870"/>
</g>
<defs>
<clipPath id="clip0_439_2175">
<rect width="44" height="44" rx="22" fill="white"/>
</clipPath>
</defs>
</svg>
