<svg width="44" height="44" viewBox="0 0 44 44" fill="none" xmlns="http://www.w3.org/2000/svg">
<g clip-path="url(#clip0_456_2237)">
<path d="M0 0H44V44H0V0Z" fill="#D4DAE2"/>
<path d="M30.0693 14.3285C30.0693 14.5462 29.3331 18.9674 27.126 20.7847C30.0811 11.5054 22.0126 6.28516 22.0126 6.28516C22.0126 6.28516 20.7617 13.1774 18.3331 15.7821C18.1987 12.8144 16.4945 10.9971 16.4945 10.9971C15.2672 16.3635 11 21.0024 11 24.4792C10.9875 30.5111 15.8927 35.3566 22 35.3566C28.0948 35.3566 33 30.5111 33 24.4792C33 20.1302 31.7617 16.9449 30.0693 14.3285Z" fill="#1E4D81"/>
</g>
<defs>
<clipPath id="clip0_456_2237">
<rect width="44" height="44" rx="22" fill="white"/>
</clipPath>
</defs>
</svg>
