<svg width="44" height="41" viewBox="0 0 44 41" fill="none" xmlns="http://www.w3.org/2000/svg">
	<g clip-path="url(#clip0_3864_3086)">
		<path d="M18.3416 6.11533C15.4801 6.71973 12.8482 8.01066 10.7188 9.85422C8.58948 11.6978 7.04028 14.0268 6.2319 16.5998C5.42352 19.1727 5.38541 21.8959 6.12152 24.4868C6.85764 27.0777 8.34116 29.442 10.4182 31.3344C12.4953 33.2268 15.0902 34.5785 17.9339 35.2492C20.7776 35.9199 23.7664 35.8851 26.5904 35.1486C29.4143 34.4121 31.9706 33.0006 33.994 31.0605C36.0175 29.1205 37.4343 26.7225 38.0977 24.1153C38.0977 23.6733 37.905 23.2494 37.5619 22.9368C37.2189 22.6243 36.7536 22.4487 36.2684 22.4487H23.8294C22.8591 22.4487 21.9285 22.0975 21.2424 21.4723C20.5563 20.8472 20.1709 19.9994 20.1709 19.1153V7.44866C20.1481 7.2512 20.0826 7.05982 19.9781 6.88561C19.8736 6.7114 19.7321 6.55783 19.562 6.4338C19.3918 6.30977 19.1963 6.21776 18.9868 6.16309C18.7773 6.10842 18.558 6.09219 18.3416 6.11533Z" stroke="#262626" stroke-width="2" stroke-linecap="round" stroke-linejoin="round"/>
		<path d="M27.4878 6.61462C29.8105 7.35976 31.9201 8.57012 33.6613 10.1566C35.4025 11.743 36.7309 13.6651 37.5488 15.7813H29.3171C28.8319 15.7813 28.3666 15.6057 28.0236 15.2931C27.6805 14.9806 27.4878 14.5567 27.4878 14.1146V6.61462Z" stroke="#262626" stroke-width="2" stroke-linecap="round" stroke-linejoin="round"/>
	</g>
	<defs>
		<clipPath id="clip0_3864_3086">
			<rect width="43.9024" height="40" fill="white" transform="translate(0.0488281 0.779053)"/>
		</clipPath>
	</defs>
</svg>
