<svg width="44" height="44" viewBox="0 0 44 44" fill="none" xmlns="http://www.w3.org/2000/svg">
<g clip-path="url(#clip0_456_2189)">
<path d="M0 0H44V44H0V0Z" fill="#D4DAE2"/>
<path d="M10.2371 28.2863C13.1261 28.2863 15.1226 26.6048 15.1226 24.0513V24.034C15.1226 21.7342 13.3886 20.0693 10.9898 20.0693C9.71143 20.0693 8.66957 20.5674 8.14393 21.3877H8.09286L8.39929 17.9557H14.2364V15.7148H6.29671L5.71921 23.0872H8.02136C8.17064 22.8334 8.37179 22.5969 8.62636 22.4115C9.05457 22.0815 9.60614 21.8953 10.2544 21.8953C11.6199 21.8953 12.5919 22.7996 12.6005 24.0851V24.1016C12.6005 25.4035 11.6294 26.3173 10.2457 26.3173C9.02786 26.3173 8.14393 25.607 7.96007 24.6853L7.94279 24.6256H5.5L5.50864 24.7529C5.66579 26.7903 7.48707 28.2863 10.2371 28.2863ZM21.5836 28.2863C24.7893 28.2863 26.7324 25.9111 26.7324 22.0304V22.0139C26.7324 18.1325 24.7885 15.7148 21.5844 15.7148C18.3794 15.7148 16.4356 18.1333 16.4356 22.0139V22.0304C16.4356 25.9118 18.3794 28.2863 21.5844 28.2863H21.5836ZM21.5836 26.2913C20.0082 26.2913 19.1062 24.7105 19.1062 22.0304V22.0139C19.1062 19.3331 20.0082 17.7608 21.5844 17.7608C23.1605 17.7608 24.0617 19.3338 24.0617 22.0139V22.0304C24.0617 24.7105 23.1605 26.2913 21.5844 26.2913H21.5836ZM33.352 28.2863C36.5561 28.2863 38.5 25.9111 38.5 22.0304V22.0139C38.5 18.1317 36.5561 15.7148 33.352 15.7148C30.1471 15.7148 28.2032 18.1333 28.2032 22.0139V22.0304C28.2032 25.9118 30.1471 28.2863 33.352 28.2863ZM33.352 26.2913C31.7759 26.2913 30.8739 24.7105 30.8739 22.0304V22.0139C30.8739 19.3331 31.7759 17.7608 33.352 17.7608C34.9274 17.7608 35.8294 19.3338 35.8294 22.0139V22.0304C35.8294 24.7105 34.9274 26.2913 33.352 26.2913Z" fill="#1E4D81"/>
</g>
<defs>
<clipPath id="clip0_456_2189">
<rect width="44" height="44" rx="22" fill="white"/>
</clipPath>
</defs>
</svg>
