<svg width="44" height="44" viewBox="0 0 44 44" fill="none" xmlns="http://www.w3.org/2000/svg">
<g clip-path="url(#clip0_456_2201)">
<path d="M0 0H44V44H0V0Z" fill="#D4DAE2"/>
<path d="M16.2267 28.2863C19.126 28.2863 21.051 26.8083 21.051 24.6382V24.6217C21.051 22.9733 19.8472 21.9298 18.0071 21.7617V21.7114C19.4607 21.4168 20.596 20.4331 20.596 18.919V18.9025C20.596 16.9932 18.8753 15.7148 16.2015 15.7148C13.5961 15.7148 11.8502 17.0946 11.6782 19.1963L11.6703 19.2977H14.051L14.0605 19.2223C14.1634 18.2794 14.9892 17.6666 16.2015 17.6666C17.4225 17.6666 18.1367 18.2551 18.1367 19.2388V19.2553C18.1367 20.2398 17.2937 20.9131 15.9949 20.9131H14.6105V22.7203H16.0302C17.5262 22.7203 18.4125 23.3598 18.4125 24.5203V24.5368C18.4125 25.53 17.5522 26.2277 16.2196 26.2277C14.8784 26.2277 14.0007 25.5803 13.8892 24.7136L13.8719 24.6217H11.3945L11.4024 24.7309C11.5752 26.8248 13.4162 28.2863 16.2267 28.2863ZM27.5527 28.2863C30.6995 28.2863 32.6088 25.8576 32.6088 21.9974V21.9809C32.6088 18.1191 30.6995 15.7148 27.5527 15.7148C24.4052 15.7148 22.4959 18.1199 22.4959 21.9801V21.9974C22.4959 25.8576 24.4052 28.2863 27.5527 28.2863ZM27.5527 26.2356C26.0049 26.2356 25.1186 24.6633 25.1186 21.9974V21.9809C25.1186 19.3142 26.0049 17.7498 27.5527 17.7498C29.1006 17.7498 29.9861 19.3142 29.9861 21.9801V21.9974C29.9861 24.6633 29.1006 26.2356 27.5527 26.2356Z" fill="#274870"/>
</g>
<defs>
<clipPath id="clip0_456_2201">
<rect width="44" height="44" rx="22" fill="white"/>
</clipPath>
</defs>
</svg>
