<svg width="44" height="44" viewBox="0 0 44 44" fill="none" xmlns="http://www.w3.org/2000/svg">
<rect width="44" height="44" rx="22" fill="#D4DAE2"/>
<g clip-path="url(#clip0_508_3717)">
<path d="M19.6172 31.0791H40.1572V10.5391H19.6172V31.0791Z" fill="#F0F3FA"/>
<path d="M29.8887 16.2441C31.0992 16.2441 32.2602 16.725 33.1162 17.581C33.9722 18.437 34.4531 19.598 34.4531 20.8086C34.4531 22.0192 33.9722 23.1801 33.1162 24.0361C32.2602 24.8921 31.0992 25.373 29.8887 25.373C28.6781 25.373 27.5171 24.8921 26.6611 24.0361C25.8051 23.1801 25.3242 22.0192 25.3242 20.8086C25.3242 19.598 25.8051 18.437 26.6611 17.581C27.5171 16.725 28.6781 16.2441 29.8887 16.2441Z" fill="#617C9E"/>
<path fill-rule="evenodd" clip-rule="evenodd" d="M29.8872 30.5085C31.1609 30.5085 32.4222 30.2576 33.599 29.7702C34.7758 29.2827 35.8451 28.5683 36.7457 27.6676C37.6464 26.7669 38.3609 25.6977 38.8483 24.5209C39.3357 23.3441 39.5866 22.0828 39.5866 20.8091C39.5866 19.5353 39.3357 18.274 38.8483 17.0972C38.3609 15.9205 37.6464 14.8512 36.7457 13.9505C35.8451 13.0498 34.7758 12.3354 33.599 11.8479C32.4222 11.3605 31.1609 11.1096 29.8872 11.1096C27.3147 11.1096 24.8476 12.1315 23.0286 13.9505C21.2096 15.7695 20.1877 18.2366 20.1877 20.8091C20.1877 23.3815 21.2096 25.8486 23.0286 27.6676C24.8476 29.4866 27.3147 30.5085 29.8872 30.5085ZM29.8872 31.0791C32.611 31.0791 35.2232 29.997 37.1492 28.071C39.0752 26.1451 40.1572 23.5328 40.1572 20.8091C40.1572 18.0853 39.0752 15.4731 37.1492 13.5471C35.2232 11.6211 32.611 10.5391 29.8872 10.5391C27.1634 10.5391 24.5512 11.6211 22.6252 13.5471C20.6992 15.4731 19.6172 18.0853 19.6172 20.8091C19.6172 23.5328 20.6992 26.1451 22.6252 28.071C24.5512 29.997 27.1634 31.0791 29.8872 31.0791Z" fill="#E0E3EB"/>
</g>
<g clip-path="url(#clip1_508_3717)">
<path d="M3 11H23.54V31.54H3V11Z" fill="#F8F9FD"/>
<path d="M15.5522 15.5644H23.54V11H15.5522V15.5644ZM3 31.54H23.54V26.9756H3V31.54ZM15.5522 23.5522H23.54V18.9878H15.5522V23.5522Z" fill="#274870"/>
<path d="M3 11H15.5522V23.5522H3V11Z" fill="#617C9E"/>
<path d="M5.76059 12.3916C5.76923 12.3748 5.78232 12.3608 5.79842 12.3509C5.81452 12.3411 5.83302 12.3359 5.85188 12.3359C5.87074 12.3359 5.88923 12.3411 5.90533 12.3509C5.92144 12.3608 5.93453 12.3748 5.94317 12.3916L6.25127 13.2018C6.26268 13.2474 6.30832 13.2702 6.34255 13.2702L7.2098 13.3159C7.30109 13.3159 7.33532 13.43 7.26685 13.4985L6.58219 14.0348C6.56729 14.0493 6.55713 14.0679 6.55305 14.0883C6.54898 14.1087 6.55118 14.1298 6.55937 14.1489L6.78759 14.9705C6.79454 14.9913 6.79462 15.0139 6.78783 15.0347C6.78104 15.0556 6.76773 15.0738 6.74986 15.0866C6.73198 15.0993 6.71049 15.106 6.68852 15.1057C6.66656 15.1053 6.64529 15.0979 6.62783 15.0846L5.90893 14.6168C5.89204 14.6055 5.87219 14.5994 5.85188 14.5994C5.83157 14.5994 5.81171 14.6055 5.79482 14.6168L5.07592 15.0846C5.05846 15.0979 5.03719 15.1053 5.01523 15.1057C4.99327 15.106 4.97177 15.0993 4.9539 15.0866C4.93602 15.0738 4.92272 15.0556 4.91592 15.0347C4.90913 15.0139 4.90922 14.9913 4.91617 14.9705L5.14439 14.1375C5.15125 14.1173 5.15164 14.0954 5.14551 14.075C5.13937 14.0545 5.12702 14.0365 5.11015 14.0234L4.4369 13.4985C4.42078 13.4855 4.40893 13.4681 4.40291 13.4483C4.39688 13.4285 4.39695 13.4074 4.40311 13.3877C4.40927 13.368 4.42124 13.3506 4.43745 13.3378C4.45365 13.325 4.47335 13.3173 4.49395 13.3159L5.3612 13.2702C5.39543 13.2702 5.44108 13.2474 5.45249 13.2018L5.76059 12.403V12.3916ZM5.76059 15.8149C5.76923 15.7982 5.78232 15.7841 5.79842 15.7743C5.81452 15.7645 5.83302 15.7593 5.85188 15.7593C5.87074 15.7593 5.88923 15.7645 5.90533 15.7743C5.92144 15.7841 5.93453 15.7982 5.94317 15.8149L6.25127 16.6251C6.26268 16.6708 6.30832 16.6936 6.34255 16.6936L7.2098 16.7392C7.30109 16.7392 7.33532 16.8533 7.26685 16.9218L6.58219 17.4581C6.56729 17.4726 6.55713 17.4913 6.55305 17.5116C6.54898 17.532 6.55118 17.5531 6.55937 17.5722L6.78759 18.3938C6.79454 18.4147 6.79462 18.4372 6.78783 18.4581C6.78104 18.479 6.76773 18.4971 6.74986 18.5099C6.73198 18.5227 6.71049 18.5294 6.68852 18.529C6.66656 18.5287 6.64529 18.5213 6.62783 18.5079L5.90893 18.0401C5.89204 18.0288 5.87219 18.0228 5.85188 18.0228C5.83157 18.0228 5.81171 18.0288 5.79482 18.0401L5.07592 18.5079C5.05846 18.5213 5.03719 18.5287 5.01523 18.529C4.99327 18.5294 4.97177 18.5227 4.9539 18.5099C4.93602 18.4971 4.92272 18.479 4.91592 18.4581C4.90913 18.4372 4.90922 18.4147 4.91617 18.3938L5.14439 17.5608C5.15125 17.5406 5.15164 17.5187 5.14551 17.4983C5.13937 17.4778 5.12702 17.4598 5.11015 17.4467L4.4369 16.9218C4.42078 16.9089 4.40893 16.8914 4.40291 16.8716C4.39688 16.8519 4.39695 16.8308 4.40311 16.811C4.40927 16.7913 4.42124 16.7739 4.43745 16.7611C4.45365 16.7483 4.47335 16.7407 4.49395 16.7392L5.3612 16.6936C5.39543 16.6936 5.44108 16.6708 5.45249 16.6251L5.76059 15.8263V15.8149ZM5.76059 19.2383C5.76923 19.2215 5.78232 19.2074 5.79842 19.1976C5.81452 19.1878 5.83302 19.1826 5.85188 19.1826C5.87074 19.1826 5.88923 19.1878 5.90533 19.1976C5.92144 19.2074 5.93453 19.2215 5.94317 19.2383L6.25127 20.0484C6.26268 20.0941 6.30832 20.1169 6.34255 20.1169L7.2098 20.1626C7.30109 20.1626 7.33532 20.2767 7.26685 20.3451L6.58219 20.8815C6.56729 20.8959 6.55713 20.9146 6.55305 20.935C6.54898 20.9553 6.55118 20.9765 6.55937 20.9956L6.78759 21.8172C6.79454 21.838 6.79462 21.8605 6.78783 21.8814C6.78104 21.9023 6.76773 21.9205 6.74986 21.9332C6.73198 21.946 6.71049 21.9527 6.68852 21.9523C6.66656 21.952 6.64529 21.9446 6.62783 21.9313L5.90893 21.4634C5.89204 21.4521 5.87219 21.4461 5.85188 21.4461C5.83157 21.4461 5.81171 21.4521 5.79482 21.4634L5.07592 21.9313C5.05846 21.9446 5.03719 21.952 5.01523 21.9523C4.99327 21.9527 4.97177 21.946 4.9539 21.9332C4.93602 21.9205 4.92272 21.9023 4.91592 21.8814C4.90913 21.8605 4.90922 21.838 4.91617 21.8172L5.14439 20.9842C5.15125 20.9639 5.15164 20.9421 5.14551 20.9216C5.13937 20.9012 5.12702 20.8831 5.11015 20.87L4.4369 20.3451C4.42078 20.3322 4.40893 20.3147 4.40291 20.295C4.39688 20.2752 4.39695 20.2541 4.40311 20.2344C4.40927 20.2147 4.42124 20.1973 4.43745 20.1844C4.45365 20.1716 4.47335 20.164 4.49395 20.1626L5.3612 20.1169C5.39543 20.1169 5.44108 20.0941 5.45249 20.0484L5.76059 19.2497V19.2383ZM9.18392 12.3916C9.19256 12.3748 9.20565 12.3608 9.22175 12.3509C9.23786 12.3411 9.25635 12.3359 9.27521 12.3359C9.29407 12.3359 9.31256 12.3411 9.32867 12.3509C9.34477 12.3608 9.35786 12.3748 9.3665 12.3916L9.6746 13.2018C9.68601 13.2474 9.73165 13.2702 9.76589 13.2702L10.6331 13.3159C10.7244 13.3159 10.7587 13.43 10.6902 13.4985L10.0055 14.0348C9.99062 14.0493 9.98046 14.0679 9.97639 14.0883C9.97231 14.1087 9.97451 14.1298 9.9827 14.1489L10.2109 14.9705C10.2179 14.9913 10.218 15.0139 10.2112 15.0347C10.2044 15.0556 10.1911 15.0738 10.1732 15.0866C10.1553 15.0993 10.1338 15.106 10.1119 15.1057C10.0899 15.1053 10.0686 15.0979 10.0512 15.0846L9.33227 14.6168C9.31538 14.6055 9.29552 14.5994 9.27521 14.5994C9.2549 14.5994 9.23504 14.6055 9.21815 14.6168L8.49925 15.0846C8.4818 15.0979 8.46053 15.1053 8.43856 15.1057C8.4166 15.106 8.39511 15.0993 8.37723 15.0866C8.35936 15.0738 8.34605 15.0556 8.33926 15.0347C8.33247 15.0139 8.33255 14.9913 8.3395 14.9705L8.56772 14.1375C8.57459 14.1173 8.57498 14.0954 8.56884 14.075C8.56271 14.0545 8.55035 14.0365 8.53349 14.0234L7.86023 13.4985C7.84411 13.4855 7.83227 13.4681 7.82624 13.4483C7.82021 13.4285 7.82028 13.4074 7.82645 13.3877C7.83261 13.368 7.84457 13.3506 7.86078 13.3378C7.87699 13.325 7.89668 13.3173 7.91729 13.3159L8.78453 13.2702C8.81877 13.2702 8.86441 13.2474 8.87582 13.2018L9.18392 12.403V12.3916ZM9.18392 15.8149C9.19256 15.7982 9.20565 15.7841 9.22175 15.7743C9.23786 15.7645 9.25635 15.7593 9.27521 15.7593C9.29407 15.7593 9.31256 15.7645 9.32867 15.7743C9.34477 15.7841 9.35786 15.7982 9.3665 15.8149L9.6746 16.6251C9.68601 16.6708 9.73165 16.6936 9.76589 16.6936L10.6331 16.7392C10.7244 16.7392 10.7587 16.8533 10.6902 16.9218L10.0055 17.4581C9.99062 17.4726 9.98046 17.4913 9.97639 17.5116C9.97231 17.532 9.97451 17.5531 9.9827 17.5722L10.2109 18.3938C10.2179 18.4147 10.218 18.4372 10.2112 18.4581C10.2044 18.479 10.1911 18.4971 10.1732 18.5099C10.1553 18.5227 10.1338 18.5294 10.1119 18.529C10.0899 18.5287 10.0686 18.5213 10.0512 18.5079L9.33227 18.0401C9.31538 18.0288 9.29552 18.0228 9.27521 18.0228C9.2549 18.0228 9.23504 18.0288 9.21815 18.0401L8.49925 18.5079C8.4818 18.5213 8.46053 18.5287 8.43856 18.529C8.4166 18.5294 8.39511 18.5227 8.37723 18.5099C8.35936 18.4971 8.34605 18.479 8.33926 18.4581C8.33247 18.4372 8.33255 18.4147 8.3395 18.3938L8.56772 17.5608C8.57459 17.5406 8.57498 17.5187 8.56884 17.4983C8.56271 17.4778 8.55035 17.4598 8.53349 17.4467L7.86023 16.9218C7.84411 16.9089 7.83227 16.8914 7.82624 16.8716C7.82021 16.8519 7.82028 16.8308 7.82645 16.811C7.83261 16.7913 7.84457 16.7739 7.86078 16.7611C7.87699 16.7483 7.89668 16.7407 7.91729 16.7392L8.78453 16.6936C8.81877 16.6936 8.86441 16.6708 8.87582 16.6251L9.18392 15.8263V15.8149ZM9.18392 19.2383C9.19256 19.2215 9.20565 19.2074 9.22175 19.1976C9.23786 19.1878 9.25635 19.1826 9.27521 19.1826C9.29407 19.1826 9.31256 19.1878 9.32867 19.1976C9.34477 19.2074 9.35786 19.2215 9.3665 19.2383L9.6746 20.0484C9.68601 20.0941 9.73165 20.1169 9.76589 20.1169L10.6331 20.1626C10.7244 20.1626 10.7587 20.2767 10.6902 20.3451L10.0055 20.8815C9.99062 20.8959 9.98046 20.9146 9.97639 20.935C9.97231 20.9553 9.97451 20.9765 9.9827 20.9956L10.2109 21.8172C10.2179 21.838 10.218 21.8605 10.2112 21.8814C10.2044 21.9023 10.1911 21.9205 10.1732 21.9332C10.1553 21.946 10.1338 21.9527 10.1119 21.9523C10.0899 21.952 10.0686 21.9446 10.0512 21.9313L9.33227 21.4634C9.31538 21.4521 9.29552 21.4461 9.27521 21.4461C9.2549 21.4461 9.23504 21.4521 9.21815 21.4634L8.49925 21.9313C8.4818 21.9446 8.46053 21.952 8.43856 21.9523C8.4166 21.9527 8.39511 21.946 8.37723 21.9332C8.35936 21.9205 8.34605 21.9023 8.33926 21.8814C8.33247 21.8605 8.33255 21.838 8.3395 21.8172L8.56772 20.9842C8.57459 20.9639 8.57498 20.9421 8.56884 20.9216C8.56271 20.9012 8.55035 20.8831 8.53349 20.87L7.86023 20.3451C7.84411 20.3322 7.83227 20.3147 7.82624 20.295C7.82021 20.2752 7.82028 20.2541 7.82645 20.2344C7.83261 20.2147 7.84457 20.1973 7.86078 20.1844C7.87699 20.1716 7.89668 20.164 7.91729 20.1626L8.78453 20.1169C8.81877 20.1169 8.86441 20.0941 8.87582 20.0484L9.18392 19.2497V19.2383ZM12.6073 12.3916C12.6159 12.3748 12.629 12.3608 12.6451 12.3509C12.6612 12.3411 12.6797 12.3359 12.6985 12.3359C12.7174 12.3359 12.7359 12.3411 12.752 12.3509C12.7681 12.3608 12.7812 12.3748 12.7898 12.3916L13.0979 13.2018C13.1093 13.2474 13.155 13.2702 13.1892 13.2702L14.0565 13.3159C14.1478 13.3159 14.182 13.43 14.1135 13.4985L13.4289 14.0348C13.414 14.0493 13.4038 14.0679 13.3997 14.0883C13.3956 14.1087 13.3978 14.1298 13.406 14.1489L13.6343 14.9705C13.6412 14.9913 13.6413 15.0139 13.6345 15.0347C13.6277 15.0556 13.6144 15.0738 13.5965 15.0866C13.5786 15.0993 13.5572 15.106 13.5352 15.1057C13.5132 15.1053 13.492 15.0979 13.4745 15.0846L12.7556 14.6168C12.7387 14.6055 12.7189 14.5994 12.6985 14.5994C12.6782 14.5994 12.6584 14.6055 12.6415 14.6168L11.9226 15.0846C11.9051 15.0979 11.8839 15.1053 11.8619 15.1057C11.8399 15.106 11.8184 15.0993 11.8006 15.0866C11.7827 15.0738 11.7694 15.0556 11.7626 15.0347C11.7558 15.0139 11.7559 14.9913 11.7628 14.9705L11.9911 14.1375C11.9979 14.1173 11.9983 14.0954 11.9922 14.075C11.986 14.0545 11.9737 14.0365 11.9568 14.0234L11.2836 13.4985C11.2674 13.4855 11.2556 13.4681 11.2496 13.4483C11.2435 13.4285 11.2436 13.4074 11.2498 13.3877C11.2559 13.368 11.2679 13.3506 11.2841 13.3378C11.3003 13.325 11.32 13.3173 11.3406 13.3159L12.2079 13.2702C12.2421 13.2702 12.2877 13.2474 12.2992 13.2018L12.6073 12.403V12.3916ZM12.6073 15.8149C12.6159 15.7982 12.629 15.7841 12.6451 15.7743C12.6612 15.7645 12.6797 15.7593 12.6985 15.7593C12.7174 15.7593 12.7359 15.7645 12.752 15.7743C12.7681 15.7841 12.7812 15.7982 12.7898 15.8149L13.0979 16.6251C13.1093 16.6708 13.155 16.6936 13.1892 16.6936L14.0565 16.7392C14.1478 16.7392 14.182 16.8533 14.1135 16.9218L13.4289 17.4581C13.414 17.4726 13.4038 17.4913 13.3997 17.5116C13.3956 17.532 13.3978 17.5531 13.406 17.5722L13.6343 18.3938C13.6412 18.4147 13.6413 18.4372 13.6345 18.4581C13.6277 18.479 13.6144 18.4971 13.5965 18.5099C13.5786 18.5227 13.5572 18.5294 13.5352 18.529C13.5132 18.5287 13.492 18.5213 13.4745 18.5079L12.7556 18.0401C12.7387 18.0288 12.7189 18.0228 12.6985 18.0228C12.6782 18.0228 12.6584 18.0288 12.6415 18.0401L11.9226 18.5079C11.9051 18.5213 11.8839 18.5287 11.8619 18.529C11.8399 18.5294 11.8184 18.5227 11.8006 18.5099C11.7827 18.4971 11.7694 18.479 11.7626 18.4581C11.7558 18.4372 11.7559 18.4147 11.7628 18.3938L11.9911 17.5608C11.9979 17.5406 11.9983 17.5187 11.9922 17.4983C11.986 17.4778 11.9737 17.4598 11.9568 17.4467L11.2836 16.9218C11.2674 16.9089 11.2556 16.8914 11.2496 16.8716C11.2435 16.8519 11.2436 16.8308 11.2498 16.811C11.2559 16.7913 11.2679 16.7739 11.2841 16.7611C11.3003 16.7483 11.32 16.7407 11.3406 16.7392L12.2079 16.6936C12.2421 16.6936 12.2877 16.6708 12.2992 16.6251L12.6073 15.8263V15.8149ZM12.6073 19.2383C12.6159 19.2215 12.629 19.2074 12.6451 19.1976C12.6612 19.1878 12.6797 19.1826 12.6985 19.1826C12.7174 19.1826 12.7359 19.1878 12.752 19.1976C12.7681 19.2074 12.7812 19.2215 12.7898 19.2383L13.0979 20.0484C13.1093 20.0941 13.155 20.1169 13.1892 20.1169L14.0565 20.1626C14.1478 20.1626 14.182 20.2767 14.1135 20.3451L13.4289 20.8815C13.414 20.8959 13.4038 20.9146 13.3997 20.935C13.3956 20.9553 13.3978 20.9765 13.406 20.9956L13.6343 21.8172C13.6412 21.838 13.6413 21.8605 13.6345 21.8814C13.6277 21.9023 13.6144 21.9205 13.5965 21.9332C13.5786 21.946 13.5572 21.9527 13.5352 21.9523C13.5132 21.952 13.492 21.9446 13.4745 21.9313L12.7556 21.4634C12.7387 21.4521 12.7189 21.4461 12.6985 21.4461C12.6782 21.4461 12.6584 21.4521 12.6415 21.4634L11.9226 21.9313C11.9051 21.9446 11.8839 21.952 11.8619 21.9523C11.8399 21.9527 11.8184 21.946 11.8006 21.9332C11.7827 21.9205 11.7694 21.9023 11.7626 21.8814C11.7558 21.8605 11.7559 21.838 11.7628 21.8172L11.9911 20.9842C11.9979 20.9639 11.9983 20.9421 11.9922 20.9216C11.986 20.9012 11.9737 20.8831 11.9568 20.87L11.2836 20.3451C11.2674 20.3322 11.2556 20.3147 11.2496 20.295C11.2435 20.2752 11.2436 20.2541 11.2498 20.2344C11.2559 20.2147 11.2679 20.1973 11.2841 20.1844C11.3003 20.1716 11.32 20.164 11.3406 20.1626L12.2079 20.1169C12.2421 20.1169 12.2877 20.0941 12.2992 20.0484L12.6073 19.2497V19.2383Z" fill="#F8F9FD"/>
</g>
<defs>
<clipPath id="clip0_508_3717">
<rect x="19.6172" y="10.5391" width="20.54" height="20.54" rx="10.27" fill="white"/>
</clipPath>
<clipPath id="clip1_508_3717">
<rect x="3" y="11" width="20.54" height="20.54" rx="10.27" fill="white"/>
</clipPath>
</defs>
</svg>
