<?xml version="1.0" encoding="UTF-8"?> <svg xmlns="http://www.w3.org/2000/svg" width="162" height="50" viewBox="0 0 162 50" fill="none"><path d="M155.471 50H6.76842C3.49845 50 0.820312 47.1859 0.820312 43.75V6.25001C0.820312 2.81407 3.49845 7.36664e-06 6.76842 7.36664e-06H155.471C158.741 7.36664e-06 161.419 2.81407 161.419 6.25001V43.75C161.419 47.1859 158.741 50 155.471 50Z" fill="black"></path><path d="M155.471 1.00157C158.225 1.00157 160.466 3.35626 160.466 6.25001V43.75C160.466 46.6438 158.225 48.9984 155.471 48.9984H6.76842C4.01444 48.9984 1.7735 46.6438 1.7735 43.75V6.25001C1.7735 3.35626 4.01444 1.00157 6.76842 1.00157H155.471ZM155.471 7.36664e-06H6.76842C3.49845 7.36664e-06 0.820312 2.81407 0.820312 6.25001V43.75C0.820312 47.1859 3.49845 50 6.76842 50H155.471C158.741 50 161.419 47.1859 161.419 43.75V6.25001C161.419 2.81407 158.741 7.36664e-06 155.471 7.36664e-06Z" fill="#A6A6A6"></path><path d="M57.2297 12.8048C57.2297 13.8485 56.9323 14.6845 56.3464 15.3079C55.6728 16.047 54.7954 16.4189 53.7203 16.4189C52.6928 16.4189 51.8154 16.0407 51.0957 15.2954C50.3745 14.5392 50.0146 13.611 50.0146 12.5001C50.0146 11.3892 50.3745 10.461 51.0957 9.71105C51.8154 8.95949 52.6928 8.58136 53.7203 8.58136C54.2319 8.58136 54.7196 8.6923 55.185 8.89855C55.649 9.10636 56.0267 9.38761 56.3003 9.73448L55.6787 10.3939C55.2014 9.80167 54.5516 9.50949 53.7203 9.50949C52.9709 9.50949 52.321 9.78448 51.7693 10.3392C51.2236 10.8954 50.95 11.6157 50.95 12.5001C50.95 13.3845 51.2236 14.111 51.7693 14.6673C52.321 15.2157 52.9709 15.497 53.7203 15.497C54.5159 15.497 55.185 15.2157 55.7129 14.661C56.0609 14.2939 56.2587 13.7876 56.3107 13.1407H53.7203V12.2376H57.1762C57.2178 12.4329 57.2297 12.622 57.2297 12.8048Z" fill="white" stroke="white" stroke-width="0.137233" stroke-miterlimit="10"></path><path d="M62.712 9.67342H59.4659V12.0484H62.3923V12.9515H59.4659V15.3265H62.712V16.2469H58.5469V8.75311H62.712V9.67342Z" fill="white" stroke="white" stroke-width="0.137233" stroke-miterlimit="10"></path><path d="M66.58 16.2469H65.661V9.67342H63.6699V8.75311H68.5726V9.67342H66.58V16.2469Z" fill="white" stroke="white" stroke-width="0.137233" stroke-miterlimit="10"></path><path d="M72.1221 16.2469V8.75311H73.0396V16.2469H72.1221Z" fill="white" stroke="white" stroke-width="0.137233" stroke-miterlimit="10"></path><path d="M77.1064 16.2469H76.1948V9.67342H74.1963V8.75311H79.1049V9.67342H77.1064V16.2469Z" fill="white" stroke="white" stroke-width="0.137233" stroke-miterlimit="10"></path><path d="M88.3862 15.2828C87.6829 16.0406 86.8115 16.4187 85.7721 16.4187C84.7267 16.4187 83.8553 16.0406 83.1519 15.2828C82.45 14.5266 82.1006 13.5984 82.1006 12.5C82.1006 11.4016 82.45 10.4734 83.1519 9.71718C83.8553 8.95936 84.7267 8.58124 85.7721 8.58124C86.8055 8.58124 87.6769 8.95936 88.3803 9.72343C89.0881 10.4859 89.4376 11.4078 89.4376 12.5C89.4376 13.5984 89.0881 14.5266 88.3862 15.2828ZM83.8315 14.6547C84.3609 15.2156 85.0047 15.4969 85.7721 15.4969C86.5334 15.4969 87.1832 15.2156 87.7067 14.6547C88.2346 14.0937 88.5022 13.3734 88.5022 12.5C88.5022 11.6266 88.2346 10.9062 87.7067 10.3453C87.1832 9.78436 86.5334 9.50311 85.7721 9.50311C85.0047 9.50311 84.3609 9.78436 83.8315 10.3453C83.3036 10.9062 83.0359 11.6266 83.0359 12.5C83.0359 13.3734 83.3036 14.0937 83.8315 14.6547Z" fill="white" stroke="white" stroke-width="0.137233" stroke-miterlimit="10"></path><path d="M90.7266 16.2469V8.75311H91.8418L95.3096 14.5812H95.3497L95.3096 13.1406V8.75311H96.2271V16.2469H95.2694L91.6381 10.1312H91.598L91.6381 11.5781V16.2469H90.7266Z" fill="white" stroke="white" stroke-width="0.137233" stroke-miterlimit="10"></path><path d="M81.8753 27.1907C79.0812 27.1907 76.7986 29.4251 76.7986 32.5079C76.7986 35.5657 79.0812 37.8235 81.8753 37.8235C84.6754 37.8235 86.958 35.5657 86.958 32.5079C86.958 29.4251 84.6754 27.1907 81.8753 27.1907ZM81.8753 35.7297C80.3422 35.7297 79.0232 34.4001 79.0232 32.5079C79.0232 30.5907 80.3422 29.2844 81.8753 29.2844C83.4085 29.2844 84.7334 30.5907 84.7334 32.5079C84.7334 34.4001 83.4085 35.7297 81.8753 35.7297ZM70.7985 27.1907C67.9984 27.1907 65.7218 29.4251 65.7218 32.5079C65.7218 35.5657 67.9984 37.8235 70.7985 37.8235C73.5971 37.8235 75.8752 35.5657 75.8752 32.5079C75.8752 29.4251 73.5971 27.1907 70.7985 27.1907ZM70.7985 35.7297C69.2639 35.7297 67.9404 34.4001 67.9404 32.5079C67.9404 30.5907 69.2639 29.2844 70.7985 29.2844C72.3316 29.2844 73.6506 30.5907 73.6506 32.5079C73.6506 34.4001 72.3316 35.7297 70.7985 35.7297ZM57.6175 28.8204V31.0797H62.7522C62.602 32.3422 62.2005 33.2704 61.5849 33.9172C60.8354 34.6985 59.6681 35.5657 57.6175 35.5657C54.4576 35.5657 51.9832 32.886 51.9832 29.5657C51.9832 26.2454 54.4576 23.5657 57.6175 23.5657C59.3261 23.5657 60.5692 24.2672 61.4867 25.1766L63.002 23.5844C61.7187 22.2969 60.0116 21.3079 57.6175 21.3079C53.2843 21.3079 49.6426 25.0126 49.6426 29.5657C49.6426 34.1188 53.2843 37.8235 57.6175 37.8235C59.9596 37.8235 61.7187 37.0172 63.1016 35.5047C64.5188 34.0157 64.9604 31.9219 64.9604 30.2313C64.9604 29.7063 64.9188 29.2235 64.8444 28.8204H57.6175ZM111.516 30.5719C111.098 29.3829 109.809 27.1907 107.183 27.1907C104.581 27.1907 102.414 29.3454 102.414 32.5079C102.414 35.486 104.558 37.8235 107.433 37.8235C109.757 37.8235 111.098 36.3344 111.65 35.4672L109.925 34.2594C109.35 35.1438 108.566 35.7297 107.433 35.7297C106.307 35.7297 105.5 35.1876 104.982 34.1188L111.75 31.1766L111.516 30.5719ZM104.616 32.3422C104.558 30.2922 106.132 29.2422 107.259 29.2422C108.142 29.2422 108.892 29.7063 109.141 30.3704L104.616 32.3422ZM99.1159 37.5H101.341V21.8751H99.1159V37.5ZM95.4727 28.3751H95.3984C94.8987 27.7532 93.9455 27.1907 92.7381 27.1907C90.2042 27.1907 87.8874 29.5282 87.8874 32.5251C87.8874 35.5047 90.2042 37.8235 92.7381 37.8235C93.9455 37.8235 94.8987 37.2563 95.3984 36.6157H95.4727V37.3782C95.4727 39.411 94.4392 40.5032 92.7723 40.5032C91.4131 40.5032 90.57 39.4719 90.222 38.6047L88.2874 39.4532C88.845 40.8625 90.3217 42.5969 92.7723 42.5969C95.3805 42.5969 97.5813 40.9844 97.5813 37.061V27.5141H95.4727V28.3751ZM92.9284 35.7297C91.3953 35.7297 90.112 34.3813 90.112 32.5251C90.112 30.6516 91.3953 29.2844 92.9284 29.2844C94.4392 29.2844 95.6303 30.6516 95.6303 32.5251C95.6303 34.3813 94.4392 35.7297 92.9284 35.7297ZM121.931 21.8751H116.611V37.5H118.829V31.5797H121.931C124.395 31.5797 126.812 29.7063 126.812 26.7266C126.812 23.7485 124.389 21.8751 121.931 21.8751ZM121.989 29.4063H118.829V24.0485H121.989C123.646 24.0485 124.592 25.4938 124.592 26.7266C124.592 27.936 123.646 29.4063 121.989 29.4063ZM135.704 27.161C134.101 27.161 132.434 27.9047 131.749 29.5532L133.718 30.4204C134.141 29.5532 134.921 29.2719 135.744 29.2719C136.895 29.2719 138.063 29.9985 138.08 31.2813V31.4454C137.679 31.2016 136.819 30.8407 135.762 30.8407C133.642 30.8407 131.481 32.0672 131.481 34.3563C131.481 36.4501 133.218 37.7985 135.17 37.7985C136.663 37.7985 137.487 37.0907 138.005 36.2672H138.08V37.475H140.223V31.4813C140.223 28.711 138.254 27.161 135.704 27.161ZM135.437 35.7235C134.711 35.7235 133.7 35.3454 133.7 34.4001C133.7 33.1907 134.961 32.7266 136.052 32.7266C137.029 32.7266 137.487 32.9532 138.08 33.2516C137.906 34.6985 136.721 35.7235 135.437 35.7235ZM148.03 27.5032L145.48 34.2766H145.404L142.768 27.5032H140.375L144.336 36.9688L142.076 42.236H144.394L150.499 27.5032H148.03ZM128.031 37.5H130.256V21.8751H128.031V37.5Z" fill="white"></path><path d="M13.2353 9.42342C12.8858 9.8078 12.6836 10.4062 12.6836 11.1812V38.825C12.6836 39.6 12.8858 40.1984 13.2353 40.5828L13.3215 40.6672L28.0639 25.1828V24.8172L13.3215 9.3328L13.2353 9.42342Z" fill="url(#paint0_linear_1181_10862)"></path><path d="M32.9731 30.3469L28.0645 25.1828V24.8172L32.9791 19.6531L33.0891 19.7203L38.9093 23.2C40.5703 24.1875 40.5703 25.8125 38.9093 26.8062L33.0891 30.2797L32.9731 30.3469Z" fill="url(#paint1_linear_1181_10862)"></path><path d="M33.0877 30.2797L28.063 25L13.2344 40.5828C13.7861 41.1922 14.6857 41.2657 15.7088 40.6563L33.0877 30.2797Z" fill="url(#paint2_linear_1181_10862)"></path><path d="M33.0877 19.7203L15.7088 9.34375C14.6857 8.74063 13.7861 8.81406 13.2344 9.42344L28.063 25L33.0877 19.7203Z" fill="url(#paint3_linear_1181_10862)"></path><defs><linearGradient id="paint0_linear_1181_10862" x1="26.755" y1="39.1129" x2="5.80264" y2="19.1726" gradientUnits="userSpaceOnUse"><stop stop-color="#00A0FF"></stop><stop offset="0.0066" stop-color="#00A1FF"></stop><stop offset="0.2601" stop-color="#00BEFF"></stop><stop offset="0.5122" stop-color="#00D2FF"></stop><stop offset="0.7604" stop-color="#00DFFF"></stop><stop offset="1" stop-color="#00E3FF"></stop></linearGradient><linearGradient id="paint1_linear_1181_10862" x1="41.0722" y1="24.9982" x2="12.2871" y2="24.9982" gradientUnits="userSpaceOnUse"><stop stop-color="#FFE000"></stop><stop offset="0.4087" stop-color="#FFBD00"></stop><stop offset="0.7754" stop-color="#FFA500"></stop><stop offset="1" stop-color="#FF9C00"></stop></linearGradient><linearGradient id="paint2_linear_1181_10862" x1="30.3554" y1="22.1299" x2="1.94235" y2="-4.91069" gradientUnits="userSpaceOnUse"><stop stop-color="#FF3A44"></stop><stop offset="1" stop-color="#C31162"></stop></linearGradient><linearGradient id="paint3_linear_1181_10862" x1="9.5017" y1="49.7798" x2="22.1894" y2="37.705" gradientUnits="userSpaceOnUse"><stop stop-color="#32A071"></stop><stop offset="0.0685" stop-color="#2DA771"></stop><stop offset="0.4762" stop-color="#15CF74"></stop><stop offset="0.8009" stop-color="#06E775"></stop><stop offset="1" stop-color="#00F076"></stop></linearGradient></defs></svg> 