<svg width="44" height="44" viewBox="0 0 44 44" fill="none" xmlns="http://www.w3.org/2000/svg">
<g clip-path="url(#clip0_456_2195)">
<path d="M0 0H44V44H0V0Z" fill="#D4DAE2"/>
<path d="M16.6931 16.9366H27.5242L25.9449 12.6993C25.8835 12.5254 25.7713 12.3741 25.6228 12.2648L16.6931 16.9366ZM16.6633 11.9073C17.0475 10.8764 17.8913 10.2148 18.8216 10.2148H25.2252C26.1563 10.2148 27.0009 10.8764 27.3843 11.9073L28.9628 16.1446C29.4358 17.4159 28.6713 18.8577 27.5242 18.8577H16.5242C15.3771 18.8577 14.6118 17.4159 15.0848 16.1446L16.6633 11.9073ZM8.04006 27.9366H18.8491L17.2714 23.6993C17.2096 23.5252 17.0968 23.3738 16.9477 23.2648L8.04006 27.9366ZM8.0102 22.9073C8.39441 21.8764 9.23906 21.2148 10.1686 21.2148H16.5517C17.482 21.2148 18.3258 21.8764 18.7101 22.9073L20.2886 27.1446C20.7623 28.4159 19.9971 29.8577 18.8483 29.8577H7.86956C6.72241 29.8577 5.95791 28.4159 6.4317 27.1446L8.0102 22.9073ZM36.2095 27.9366H25.3273L34.3081 23.2656C34.4479 23.3646 34.5618 23.5138 34.6318 23.7001L36.2095 27.9366ZM27.4543 21.2148C26.524 21.2148 25.6801 21.8764 25.2967 22.9073L23.7174 27.1446C23.2452 28.4159 24.0097 29.8577 25.1576 29.8577H36.2095C37.3566 29.8577 38.1219 28.4159 37.6481 27.1446L36.0688 22.9073C35.6878 21.8764 34.8423 21.2148 33.9128 21.2148H27.4543Z" fill="#274870"/>
</g>
<defs>
<clipPath id="clip0_456_2195">
<rect width="44" height="44" rx="22" fill="white"/>
</clipPath>
</defs>
</svg>
