<svg width="44" height="41" viewBox="0 0 44 41" fill="none" xmlns="http://www.w3.org/2000/svg">
	<path d="M12.8537 32.4483C16.8948 32.4483 20.1708 29.4636 20.1708 25.7817C20.1708 22.0998 16.8948 19.115 12.8537 19.115C8.81259 19.115 5.53662 22.0998 5.53662 25.7817C5.53662 29.4636 8.81259 32.4483 12.8537 32.4483Z" stroke="#262626" stroke-width="2" stroke-linecap="round" stroke-linejoin="round"/>
	<path d="M12.8511 25.7791V25.795" stroke="#262626" stroke-width="2" stroke-linecap="round" stroke-linejoin="round"/>
	<path d="M34.8036 32.4457C36.8241 32.4457 38.4621 30.9533 38.4621 29.1124C38.4621 27.2714 36.8241 25.7791 34.8036 25.7791C32.783 25.7791 31.145 27.2714 31.145 29.1124C31.145 30.9533 32.783 32.4457 34.8036 32.4457Z" stroke="#262626" stroke-width="2" stroke-linecap="round" stroke-linejoin="round"/>
	<path d="M19.2563 29.115H31.1466" stroke="#262626" stroke-width="2" stroke-linecap="round" stroke-linejoin="round"/>
	<path d="M36.6373 26.115V19.115C36.6373 18.673 36.4445 18.249 36.1015 17.9365C35.7584 17.6239 35.2931 17.4483 34.808 17.4483H23.8324L20.1739 9.11499H9.19824V19.9483" stroke="#262626" stroke-width="2" stroke-linecap="round" stroke-linejoin="round"/>
	<path d="M32.9769 9.11499H31.1476C30.6625 9.11499 30.1972 9.29059 29.8541 9.60315C29.5111 9.91571 29.3184 10.3396 29.3184 10.7817V17.4483" stroke="#262626" stroke-width="2" stroke-linecap="round" stroke-linejoin="round"/>
</svg>
